%TF.GenerationSoftware,KiCad,Pcbnew,(6.0.7)*%
%TF.CreationDate,2022-10-05T08:21:53-05:00*%
%TF.ProjectId,SolenoidHandlerBoard,536f6c65-6e6f-4696-9448-616e646c6572,rev?*%
%TF.SameCoordinates,Original*%
%TF.FileFunction,Legend,Bot*%
%TF.FilePolarity,Positive*%
%FSLAX46Y46*%
G04 Gerber Fmt 4.6, Leading zero omitted, Abs format (unit mm)*
G04 Created by KiCad (PCBNEW (6.0.7)) date 2022-10-05 08:21:53*
%MOMM*%
%LPD*%
G01*
G04 APERTURE LIST*
%ADD10C,0.150000*%
G04 APERTURE END LIST*
D10*
X142000000Y-90989761D02*
X141871428Y-91037380D01*
X141657142Y-91037380D01*
X141571428Y-90989761D01*
X141528571Y-90942142D01*
X141485714Y-90846904D01*
X141485714Y-90751666D01*
X141528571Y-90656428D01*
X141571428Y-90608809D01*
X141657142Y-90561190D01*
X141828571Y-90513571D01*
X141914285Y-90465952D01*
X141957142Y-90418333D01*
X142000000Y-90323095D01*
X142000000Y-90227857D01*
X141957142Y-90132619D01*
X141914285Y-90085000D01*
X141828571Y-90037380D01*
X141614285Y-90037380D01*
X141485714Y-90085000D01*
X140928571Y-90037380D02*
X140757142Y-90037380D01*
X140671428Y-90085000D01*
X140585714Y-90180238D01*
X140542857Y-90370714D01*
X140542857Y-90704047D01*
X140585714Y-90894523D01*
X140671428Y-90989761D01*
X140757142Y-91037380D01*
X140928571Y-91037380D01*
X141014285Y-90989761D01*
X141100000Y-90894523D01*
X141142857Y-90704047D01*
X141142857Y-90370714D01*
X141100000Y-90180238D01*
X141014285Y-90085000D01*
X140928571Y-90037380D01*
X139728571Y-91037380D02*
X140157142Y-91037380D01*
X140157142Y-90037380D01*
X139428571Y-90513571D02*
X139128571Y-90513571D01*
X139000000Y-91037380D02*
X139428571Y-91037380D01*
X139428571Y-90037380D01*
X139000000Y-90037380D01*
X138614285Y-91037380D02*
X138614285Y-90037380D01*
X138100000Y-91037380D01*
X138100000Y-90037380D01*
X137500000Y-90037380D02*
X137328571Y-90037380D01*
X137242857Y-90085000D01*
X137157142Y-90180238D01*
X137114285Y-90370714D01*
X137114285Y-90704047D01*
X137157142Y-90894523D01*
X137242857Y-90989761D01*
X137328571Y-91037380D01*
X137500000Y-91037380D01*
X137585714Y-90989761D01*
X137671428Y-90894523D01*
X137714285Y-90704047D01*
X137714285Y-90370714D01*
X137671428Y-90180238D01*
X137585714Y-90085000D01*
X137500000Y-90037380D01*
X136728571Y-91037380D02*
X136728571Y-90037380D01*
X136300000Y-91037380D02*
X136300000Y-90037380D01*
X136085714Y-90037380D01*
X135957142Y-90085000D01*
X135871428Y-90180238D01*
X135828571Y-90275476D01*
X135785714Y-90465952D01*
X135785714Y-90608809D01*
X135828571Y-90799285D01*
X135871428Y-90894523D01*
X135957142Y-90989761D01*
X136085714Y-91037380D01*
X136300000Y-91037380D01*
X134714285Y-91037380D02*
X134714285Y-90037380D01*
X134714285Y-90513571D02*
X134200000Y-90513571D01*
X134200000Y-91037380D02*
X134200000Y-90037380D01*
X133814285Y-90751666D02*
X133385714Y-90751666D01*
X133900000Y-91037380D02*
X133600000Y-90037380D01*
X133300000Y-91037380D01*
X133000000Y-91037380D02*
X133000000Y-90037380D01*
X132485714Y-91037380D01*
X132485714Y-90037380D01*
X132057142Y-91037380D02*
X132057142Y-90037380D01*
X131842857Y-90037380D01*
X131714285Y-90085000D01*
X131628571Y-90180238D01*
X131585714Y-90275476D01*
X131542857Y-90465952D01*
X131542857Y-90608809D01*
X131585714Y-90799285D01*
X131628571Y-90894523D01*
X131714285Y-90989761D01*
X131842857Y-91037380D01*
X132057142Y-91037380D01*
X130728571Y-91037380D02*
X131157142Y-91037380D01*
X131157142Y-90037380D01*
X130428571Y-90513571D02*
X130128571Y-90513571D01*
X130000000Y-91037380D02*
X130428571Y-91037380D01*
X130428571Y-90037380D01*
X130000000Y-90037380D01*
X129100000Y-91037380D02*
X129400000Y-90561190D01*
X129614285Y-91037380D02*
X129614285Y-90037380D01*
X129271428Y-90037380D01*
X129185714Y-90085000D01*
X129142857Y-90132619D01*
X129100000Y-90227857D01*
X129100000Y-90370714D01*
X129142857Y-90465952D01*
X129185714Y-90513571D01*
X129271428Y-90561190D01*
X129614285Y-90561190D01*
X127728571Y-90513571D02*
X127600000Y-90561190D01*
X127557142Y-90608809D01*
X127514285Y-90704047D01*
X127514285Y-90846904D01*
X127557142Y-90942142D01*
X127600000Y-90989761D01*
X127685714Y-91037380D01*
X128028571Y-91037380D01*
X128028571Y-90037380D01*
X127728571Y-90037380D01*
X127642857Y-90085000D01*
X127600000Y-90132619D01*
X127557142Y-90227857D01*
X127557142Y-90323095D01*
X127600000Y-90418333D01*
X127642857Y-90465952D01*
X127728571Y-90513571D01*
X128028571Y-90513571D01*
X126957142Y-90037380D02*
X126785714Y-90037380D01*
X126700000Y-90085000D01*
X126614285Y-90180238D01*
X126571428Y-90370714D01*
X126571428Y-90704047D01*
X126614285Y-90894523D01*
X126700000Y-90989761D01*
X126785714Y-91037380D01*
X126957142Y-91037380D01*
X127042857Y-90989761D01*
X127128571Y-90894523D01*
X127171428Y-90704047D01*
X127171428Y-90370714D01*
X127128571Y-90180238D01*
X127042857Y-90085000D01*
X126957142Y-90037380D01*
X126228571Y-90751666D02*
X125800000Y-90751666D01*
X126314285Y-91037380D02*
X126014285Y-90037380D01*
X125714285Y-91037380D01*
X124900000Y-91037380D02*
X125200000Y-90561190D01*
X125414285Y-91037380D02*
X125414285Y-90037380D01*
X125071428Y-90037380D01*
X124985714Y-90085000D01*
X124942857Y-90132619D01*
X124900000Y-90227857D01*
X124900000Y-90370714D01*
X124942857Y-90465952D01*
X124985714Y-90513571D01*
X125071428Y-90561190D01*
X125414285Y-90561190D01*
X124514285Y-91037380D02*
X124514285Y-90037380D01*
X124300000Y-90037380D01*
X124171428Y-90085000D01*
X124085714Y-90180238D01*
X124042857Y-90275476D01*
X124000000Y-90465952D01*
X124000000Y-90608809D01*
X124042857Y-90799285D01*
X124085714Y-90894523D01*
X124171428Y-90989761D01*
X124300000Y-91037380D01*
X124514285Y-91037380D01*
X136685714Y-92647380D02*
X137200000Y-92647380D01*
X136942857Y-92647380D02*
X136942857Y-91647380D01*
X137028571Y-91790238D01*
X137114285Y-91885476D01*
X137200000Y-91933095D01*
X136128571Y-91647380D02*
X136042857Y-91647380D01*
X135957142Y-91695000D01*
X135914285Y-91742619D01*
X135871428Y-91837857D01*
X135828571Y-92028333D01*
X135828571Y-92266428D01*
X135871428Y-92456904D01*
X135914285Y-92552142D01*
X135957142Y-92599761D01*
X136042857Y-92647380D01*
X136128571Y-92647380D01*
X136214285Y-92599761D01*
X136257142Y-92552142D01*
X136300000Y-92456904D01*
X136342857Y-92266428D01*
X136342857Y-92028333D01*
X136300000Y-91837857D01*
X136257142Y-91742619D01*
X136214285Y-91695000D01*
X136128571Y-91647380D01*
X134800000Y-91599761D02*
X135571428Y-92885476D01*
X134328571Y-91647380D02*
X134242857Y-91647380D01*
X134157142Y-91695000D01*
X134114285Y-91742619D01*
X134071428Y-91837857D01*
X134028571Y-92028333D01*
X134028571Y-92266428D01*
X134071428Y-92456904D01*
X134114285Y-92552142D01*
X134157142Y-92599761D01*
X134242857Y-92647380D01*
X134328571Y-92647380D01*
X134414285Y-92599761D01*
X134457142Y-92552142D01*
X134500000Y-92456904D01*
X134542857Y-92266428D01*
X134542857Y-92028333D01*
X134500000Y-91837857D01*
X134457142Y-91742619D01*
X134414285Y-91695000D01*
X134328571Y-91647380D01*
X133685714Y-91742619D02*
X133642857Y-91695000D01*
X133557142Y-91647380D01*
X133342857Y-91647380D01*
X133257142Y-91695000D01*
X133214285Y-91742619D01*
X133171428Y-91837857D01*
X133171428Y-91933095D01*
X133214285Y-92075952D01*
X133728571Y-92647380D01*
X133171428Y-92647380D01*
X132142857Y-91599761D02*
X132914285Y-92885476D01*
X131885714Y-91742619D02*
X131842857Y-91695000D01*
X131757142Y-91647380D01*
X131542857Y-91647380D01*
X131457142Y-91695000D01*
X131414285Y-91742619D01*
X131371428Y-91837857D01*
X131371428Y-91933095D01*
X131414285Y-92075952D01*
X131928571Y-92647380D01*
X131371428Y-92647380D01*
X130814285Y-91647380D02*
X130728571Y-91647380D01*
X130642857Y-91695000D01*
X130600000Y-91742619D01*
X130557142Y-91837857D01*
X130514285Y-92028333D01*
X130514285Y-92266428D01*
X130557142Y-92456904D01*
X130600000Y-92552142D01*
X130642857Y-92599761D01*
X130728571Y-92647380D01*
X130814285Y-92647380D01*
X130900000Y-92599761D01*
X130942857Y-92552142D01*
X130985714Y-92456904D01*
X131028571Y-92266428D01*
X131028571Y-92028333D01*
X130985714Y-91837857D01*
X130942857Y-91742619D01*
X130900000Y-91695000D01*
X130814285Y-91647380D01*
X130171428Y-91742619D02*
X130128571Y-91695000D01*
X130042857Y-91647380D01*
X129828571Y-91647380D01*
X129742857Y-91695000D01*
X129700000Y-91742619D01*
X129657142Y-91837857D01*
X129657142Y-91933095D01*
X129700000Y-92075952D01*
X130214285Y-92647380D01*
X129657142Y-92647380D01*
X129314285Y-91742619D02*
X129271428Y-91695000D01*
X129185714Y-91647380D01*
X128971428Y-91647380D01*
X128885714Y-91695000D01*
X128842857Y-91742619D01*
X128800000Y-91837857D01*
X128800000Y-91933095D01*
X128842857Y-92075952D01*
X129357142Y-92647380D01*
X128800000Y-92647380D01*
X134371428Y-96477380D02*
X134071428Y-97477380D01*
X133771428Y-96477380D01*
X133000000Y-97477380D02*
X133514285Y-97477380D01*
X133257142Y-97477380D02*
X133257142Y-96477380D01*
X133342857Y-96620238D01*
X133428571Y-96715476D01*
X133514285Y-96763095D01*
X132614285Y-97382142D02*
X132571428Y-97429761D01*
X132614285Y-97477380D01*
X132657142Y-97429761D01*
X132614285Y-97382142D01*
X132614285Y-97477380D01*
X132014285Y-96477380D02*
X131928571Y-96477380D01*
X131842857Y-96525000D01*
X131800000Y-96572619D01*
X131757142Y-96667857D01*
X131714285Y-96858333D01*
X131714285Y-97096428D01*
X131757142Y-97286904D01*
X131800000Y-97382142D01*
X131842857Y-97429761D01*
X131928571Y-97477380D01*
X132014285Y-97477380D01*
X132100000Y-97429761D01*
X132142857Y-97382142D01*
X132185714Y-97286904D01*
X132228571Y-97096428D01*
X132228571Y-96858333D01*
X132185714Y-96667857D01*
X132142857Y-96572619D01*
X132100000Y-96525000D01*
X132014285Y-96477380D01*
M02*
