%TF.GenerationSoftware,KiCad,Pcbnew,(6.0.7)*%
%TF.CreationDate,2022-10-05T08:21:53-05:00*%
%TF.ProjectId,SolenoidHandlerBoard,536f6c65-6e6f-4696-9448-616e646c6572,rev?*%
%TF.SameCoordinates,Original*%
%TF.FileFunction,Copper,L2,Bot*%
%TF.FilePolarity,Positive*%
%FSLAX46Y46*%
G04 Gerber Fmt 4.6, Leading zero omitted, Abs format (unit mm)*
G04 Created by KiCad (PCBNEW (6.0.7)) date 2022-10-05 08:21:53*
%MOMM*%
%LPD*%
G01*
G04 APERTURE LIST*
%TA.AperFunction,ComponentPad*%
%ADD10R,1.500000X1.500000*%
%TD*%
%TA.AperFunction,ComponentPad*%
%ADD11O,1.500000X1.500000*%
%TD*%
%TA.AperFunction,ComponentPad*%
%ADD12R,2.600000X2.600000*%
%TD*%
%TA.AperFunction,ComponentPad*%
%ADD13C,2.600000*%
%TD*%
G04 APERTURE END LIST*
D10*
%TO.P,D1,1,K*%
%TO.N,Net-(D1-Pad1)*%
X129685000Y-86500000D03*
D11*
%TO.P,D1,2,A*%
%TO.N,GND*%
X137305000Y-86500000D03*
%TD*%
D12*
%TO.P,J2,1,Pin_1*%
%TO.N,+12V*%
X136000000Y-94500000D03*
D13*
%TO.P,J2,2,Pin_2*%
%TO.N,Net-(D1-Pad1)*%
X131000000Y-94500000D03*
%TD*%
D12*
%TO.P,J3,1,Pin_1*%
%TO.N,GND*%
X145500000Y-93000000D03*
D13*
%TO.P,J3,2,Pin_2*%
%TO.N,+12V*%
X145500000Y-98000000D03*
%TD*%
D12*
%TO.P,J1,1,Pin_1*%
%TO.N,Net-(D1-Pad1)*%
X121500000Y-98000000D03*
D13*
%TO.P,J1,2,Pin_2*%
%TO.N,GND*%
X121500000Y-93000000D03*
%TD*%
%TA.AperFunction,Conductor*%
%TO.N,GND*%
G36*
X150970018Y-84510000D02*
G01*
X150984852Y-84512310D01*
X150984855Y-84512310D01*
X150993724Y-84513691D01*
X151002626Y-84512527D01*
X151002750Y-84512511D01*
X151033192Y-84512240D01*
X151040621Y-84513077D01*
X151095264Y-84519234D01*
X151122771Y-84525513D01*
X151199853Y-84552485D01*
X151225274Y-84564727D01*
X151294426Y-84608178D01*
X151316485Y-84625770D01*
X151374230Y-84683515D01*
X151391822Y-84705574D01*
X151435273Y-84774726D01*
X151447515Y-84800147D01*
X151474487Y-84877228D01*
X151480766Y-84904736D01*
X151487018Y-84960226D01*
X151486923Y-84975868D01*
X151487800Y-84975879D01*
X151487690Y-84984851D01*
X151486309Y-84993724D01*
X151487473Y-85002626D01*
X151487473Y-85002628D01*
X151490436Y-85025283D01*
X151491500Y-85041621D01*
X151491500Y-99950633D01*
X151490000Y-99970018D01*
X151486309Y-99993724D01*
X151487473Y-100002626D01*
X151487489Y-100002750D01*
X151487760Y-100033192D01*
X151485430Y-100053870D01*
X151480766Y-100095264D01*
X151474487Y-100122771D01*
X151447515Y-100199853D01*
X151435273Y-100225274D01*
X151391822Y-100294426D01*
X151374230Y-100316485D01*
X151316485Y-100374230D01*
X151294426Y-100391822D01*
X151225274Y-100435273D01*
X151199853Y-100447515D01*
X151122772Y-100474487D01*
X151095264Y-100480766D01*
X151039774Y-100487018D01*
X151024132Y-100486923D01*
X151024121Y-100487800D01*
X151015149Y-100487690D01*
X151006276Y-100486309D01*
X150997374Y-100487473D01*
X150997372Y-100487473D01*
X150986385Y-100488910D01*
X150974714Y-100490436D01*
X150958379Y-100491500D01*
X116049367Y-100491500D01*
X116029982Y-100490000D01*
X116015148Y-100487690D01*
X116015145Y-100487690D01*
X116006276Y-100486309D01*
X115997374Y-100487473D01*
X115997250Y-100487489D01*
X115966808Y-100487760D01*
X115946130Y-100485430D01*
X115904736Y-100480766D01*
X115877229Y-100474487D01*
X115800147Y-100447515D01*
X115774726Y-100435273D01*
X115705574Y-100391822D01*
X115683515Y-100374230D01*
X115625770Y-100316485D01*
X115608178Y-100294426D01*
X115564727Y-100225274D01*
X115552485Y-100199853D01*
X115525513Y-100122772D01*
X115519234Y-100095266D01*
X115513170Y-100041451D01*
X115512888Y-100016640D01*
X115513576Y-100012552D01*
X115513729Y-100000000D01*
X115509773Y-99972376D01*
X115508500Y-99954514D01*
X115508500Y-99348134D01*
X119691500Y-99348134D01*
X119698255Y-99410316D01*
X119749385Y-99546705D01*
X119836739Y-99663261D01*
X119953295Y-99750615D01*
X120089684Y-99801745D01*
X120151866Y-99808500D01*
X122848134Y-99808500D01*
X122910316Y-99801745D01*
X123046705Y-99750615D01*
X123163261Y-99663261D01*
X123250615Y-99546705D01*
X123301745Y-99410316D01*
X123308500Y-99348134D01*
X123308500Y-97952526D01*
X143687050Y-97952526D01*
X143699947Y-98221019D01*
X143752388Y-98484656D01*
X143843220Y-98737646D01*
X143970450Y-98974431D01*
X143973241Y-98978168D01*
X143973245Y-98978175D01*
X144054887Y-99087506D01*
X144131281Y-99189810D01*
X144134590Y-99193090D01*
X144134595Y-99193096D01*
X144318863Y-99375762D01*
X144322180Y-99379050D01*
X144325942Y-99381808D01*
X144325945Y-99381811D01*
X144374912Y-99417715D01*
X144538954Y-99537995D01*
X144543089Y-99540171D01*
X144543093Y-99540173D01*
X144772698Y-99660975D01*
X144776840Y-99663154D01*
X145030613Y-99751775D01*
X145035206Y-99752647D01*
X145290109Y-99801042D01*
X145290112Y-99801042D01*
X145294698Y-99801913D01*
X145422370Y-99806929D01*
X145558625Y-99812283D01*
X145558630Y-99812283D01*
X145563293Y-99812466D01*
X145667607Y-99801042D01*
X145825844Y-99783713D01*
X145825850Y-99783712D01*
X145830497Y-99783203D01*
X145942302Y-99753767D01*
X146085918Y-99715956D01*
X146085920Y-99715955D01*
X146090441Y-99714765D01*
X146197795Y-99668642D01*
X146333120Y-99610502D01*
X146333122Y-99610501D01*
X146337414Y-99608657D01*
X146456071Y-99535230D01*
X146562017Y-99469669D01*
X146562021Y-99469666D01*
X146565990Y-99467210D01*
X146771149Y-99293530D01*
X146948382Y-99091434D01*
X147093797Y-98865361D01*
X147204199Y-98620278D01*
X147241209Y-98489051D01*
X147275893Y-98366072D01*
X147275894Y-98366069D01*
X147277163Y-98361568D01*
X147295043Y-98221019D01*
X147310688Y-98098045D01*
X147310688Y-98098041D01*
X147311086Y-98094915D01*
X147313571Y-98000000D01*
X147293650Y-97731937D01*
X147234327Y-97469763D01*
X147136902Y-97219238D01*
X147003518Y-96985864D01*
X146837105Y-96774769D01*
X146641317Y-96590591D01*
X146443407Y-96453295D01*
X146424299Y-96440039D01*
X146424296Y-96440037D01*
X146420457Y-96437374D01*
X146416264Y-96435306D01*
X146183564Y-96320551D01*
X146183561Y-96320550D01*
X146179376Y-96318486D01*
X146160570Y-96312466D01*
X145977193Y-96253767D01*
X145923370Y-96236538D01*
X145918763Y-96235788D01*
X145918760Y-96235787D01*
X145705337Y-96201029D01*
X145658063Y-96193330D01*
X145527719Y-96191624D01*
X145393961Y-96189873D01*
X145393958Y-96189873D01*
X145389284Y-96189812D01*
X145122937Y-96226060D01*
X144864874Y-96301278D01*
X144860621Y-96303238D01*
X144860620Y-96303239D01*
X144841002Y-96312283D01*
X144620763Y-96413815D01*
X144616854Y-96416378D01*
X144399881Y-96558631D01*
X144399876Y-96558635D01*
X144395968Y-96561197D01*
X144195426Y-96740188D01*
X144023544Y-96946854D01*
X143884096Y-97176656D01*
X143780148Y-97424545D01*
X143713981Y-97685077D01*
X143687050Y-97952526D01*
X123308500Y-97952526D01*
X123308500Y-96651866D01*
X123301745Y-96589684D01*
X123250615Y-96453295D01*
X123163261Y-96336739D01*
X123046705Y-96249385D01*
X122910316Y-96198255D01*
X122848134Y-96191500D01*
X120151866Y-96191500D01*
X120089684Y-96198255D01*
X119953295Y-96249385D01*
X119836739Y-96336739D01*
X119749385Y-96453295D01*
X119698255Y-96589684D01*
X119691500Y-96651866D01*
X119691500Y-99348134D01*
X115508500Y-99348134D01*
X115508500Y-94444906D01*
X120419839Y-94444906D01*
X120428553Y-94456427D01*
X120535452Y-94534809D01*
X120543351Y-94539745D01*
X120772905Y-94660519D01*
X120781454Y-94664236D01*
X121026327Y-94749749D01*
X121035336Y-94752163D01*
X121290166Y-94800544D01*
X121299423Y-94801598D01*
X121558607Y-94811783D01*
X121567921Y-94811457D01*
X121825753Y-94783220D01*
X121834930Y-94781519D01*
X122085758Y-94715481D01*
X122094574Y-94712445D01*
X122332880Y-94610062D01*
X122341167Y-94605748D01*
X122561718Y-94469266D01*
X122569268Y-94463780D01*
X122574559Y-94459301D01*
X122579024Y-94452526D01*
X129187050Y-94452526D01*
X129187274Y-94457192D01*
X129187274Y-94457197D01*
X129191907Y-94553649D01*
X129199947Y-94721019D01*
X129252388Y-94984656D01*
X129343220Y-95237646D01*
X129470450Y-95474431D01*
X129473241Y-95478168D01*
X129473245Y-95478175D01*
X129554887Y-95587506D01*
X129631281Y-95689810D01*
X129634590Y-95693090D01*
X129634595Y-95693096D01*
X129818863Y-95875762D01*
X129822180Y-95879050D01*
X129825942Y-95881808D01*
X129825945Y-95881811D01*
X129874912Y-95917715D01*
X130038954Y-96037995D01*
X130043089Y-96040171D01*
X130043093Y-96040173D01*
X130272698Y-96160975D01*
X130276840Y-96163154D01*
X130385298Y-96201029D01*
X130486981Y-96236538D01*
X130530613Y-96251775D01*
X130535206Y-96252647D01*
X130790109Y-96301042D01*
X130790112Y-96301042D01*
X130794698Y-96301913D01*
X130922370Y-96306929D01*
X131058625Y-96312283D01*
X131058630Y-96312283D01*
X131063293Y-96312466D01*
X131167607Y-96301042D01*
X131325844Y-96283713D01*
X131325850Y-96283712D01*
X131330497Y-96283203D01*
X131442302Y-96253767D01*
X131585918Y-96215956D01*
X131585920Y-96215955D01*
X131590441Y-96214765D01*
X131594738Y-96212919D01*
X131833120Y-96110502D01*
X131833122Y-96110501D01*
X131837414Y-96108657D01*
X131956071Y-96035230D01*
X132062017Y-95969669D01*
X132062021Y-95969666D01*
X132065990Y-95967210D01*
X132206648Y-95848134D01*
X134191500Y-95848134D01*
X134198255Y-95910316D01*
X134249385Y-96046705D01*
X134336739Y-96163261D01*
X134453295Y-96250615D01*
X134589684Y-96301745D01*
X134651866Y-96308500D01*
X137348134Y-96308500D01*
X137410316Y-96301745D01*
X137546705Y-96250615D01*
X137663261Y-96163261D01*
X137750615Y-96046705D01*
X137801745Y-95910316D01*
X137808500Y-95848134D01*
X137808500Y-94344669D01*
X143692001Y-94344669D01*
X143692371Y-94351490D01*
X143697895Y-94402352D01*
X143701521Y-94417604D01*
X143746676Y-94538054D01*
X143755214Y-94553649D01*
X143831715Y-94655724D01*
X143844276Y-94668285D01*
X143946351Y-94744786D01*
X143961946Y-94753324D01*
X144082394Y-94798478D01*
X144097649Y-94802105D01*
X144148514Y-94807631D01*
X144155328Y-94808000D01*
X145227885Y-94808000D01*
X145243124Y-94803525D01*
X145244329Y-94802135D01*
X145246000Y-94794452D01*
X145246000Y-94789884D01*
X145754000Y-94789884D01*
X145758475Y-94805123D01*
X145759865Y-94806328D01*
X145767548Y-94807999D01*
X146844669Y-94807999D01*
X146851490Y-94807629D01*
X146902352Y-94802105D01*
X146917604Y-94798479D01*
X147038054Y-94753324D01*
X147053649Y-94744786D01*
X147155724Y-94668285D01*
X147168285Y-94655724D01*
X147244786Y-94553649D01*
X147253324Y-94538054D01*
X147298478Y-94417606D01*
X147302105Y-94402351D01*
X147307631Y-94351486D01*
X147308000Y-94344672D01*
X147308000Y-93272115D01*
X147303525Y-93256876D01*
X147302135Y-93255671D01*
X147294452Y-93254000D01*
X145772115Y-93254000D01*
X145756876Y-93258475D01*
X145755671Y-93259865D01*
X145754000Y-93267548D01*
X145754000Y-94789884D01*
X145246000Y-94789884D01*
X145246000Y-93272115D01*
X145241525Y-93256876D01*
X145240135Y-93255671D01*
X145232452Y-93254000D01*
X143710116Y-93254000D01*
X143694877Y-93258475D01*
X143693672Y-93259865D01*
X143692001Y-93267548D01*
X143692001Y-94344669D01*
X137808500Y-94344669D01*
X137808500Y-93151866D01*
X137801745Y-93089684D01*
X137750615Y-92953295D01*
X137663261Y-92836739D01*
X137546705Y-92749385D01*
X137489354Y-92727885D01*
X143692000Y-92727885D01*
X143696475Y-92743124D01*
X143697865Y-92744329D01*
X143705548Y-92746000D01*
X145227885Y-92746000D01*
X145243124Y-92741525D01*
X145244329Y-92740135D01*
X145246000Y-92732452D01*
X145246000Y-92727885D01*
X145754000Y-92727885D01*
X145758475Y-92743124D01*
X145759865Y-92744329D01*
X145767548Y-92746000D01*
X147289884Y-92746000D01*
X147305123Y-92741525D01*
X147306328Y-92740135D01*
X147307999Y-92732452D01*
X147307999Y-91655331D01*
X147307629Y-91648510D01*
X147302105Y-91597648D01*
X147298479Y-91582396D01*
X147253324Y-91461946D01*
X147244786Y-91446351D01*
X147168285Y-91344276D01*
X147155724Y-91331715D01*
X147053649Y-91255214D01*
X147038054Y-91246676D01*
X146917606Y-91201522D01*
X146902351Y-91197895D01*
X146851486Y-91192369D01*
X146844672Y-91192000D01*
X145772115Y-91192000D01*
X145756876Y-91196475D01*
X145755671Y-91197865D01*
X145754000Y-91205548D01*
X145754000Y-92727885D01*
X145246000Y-92727885D01*
X145246000Y-91210116D01*
X145241525Y-91194877D01*
X145240135Y-91193672D01*
X145232452Y-91192001D01*
X144155331Y-91192001D01*
X144148510Y-91192371D01*
X144097648Y-91197895D01*
X144082396Y-91201521D01*
X143961946Y-91246676D01*
X143946351Y-91255214D01*
X143844276Y-91331715D01*
X143831715Y-91344276D01*
X143755214Y-91446351D01*
X143746676Y-91461946D01*
X143701522Y-91582394D01*
X143697895Y-91597649D01*
X143692369Y-91648514D01*
X143692000Y-91655328D01*
X143692000Y-92727885D01*
X137489354Y-92727885D01*
X137410316Y-92698255D01*
X137348134Y-92691500D01*
X134651866Y-92691500D01*
X134589684Y-92698255D01*
X134453295Y-92749385D01*
X134336739Y-92836739D01*
X134249385Y-92953295D01*
X134198255Y-93089684D01*
X134191500Y-93151866D01*
X134191500Y-95848134D01*
X132206648Y-95848134D01*
X132271149Y-95793530D01*
X132448382Y-95591434D01*
X132593797Y-95365361D01*
X132704199Y-95120278D01*
X132741209Y-94989051D01*
X132775893Y-94866072D01*
X132775894Y-94866069D01*
X132777163Y-94861568D01*
X132785701Y-94794452D01*
X132810688Y-94598045D01*
X132810688Y-94598041D01*
X132811086Y-94594915D01*
X132813571Y-94500000D01*
X132793650Y-94231937D01*
X132782020Y-94180538D01*
X132735361Y-93974331D01*
X132735360Y-93974326D01*
X132734327Y-93969763D01*
X132636902Y-93719238D01*
X132503518Y-93485864D01*
X132337105Y-93274769D01*
X132141317Y-93090591D01*
X131943407Y-92953295D01*
X131924299Y-92940039D01*
X131924296Y-92940037D01*
X131920457Y-92937374D01*
X131916264Y-92935306D01*
X131683564Y-92820551D01*
X131683561Y-92820550D01*
X131679376Y-92818486D01*
X131631745Y-92803239D01*
X131447709Y-92744329D01*
X131423370Y-92736538D01*
X131418763Y-92735788D01*
X131418760Y-92735787D01*
X131205337Y-92701029D01*
X131158063Y-92693330D01*
X131027719Y-92691624D01*
X130893961Y-92689873D01*
X130893958Y-92689873D01*
X130889284Y-92689812D01*
X130622937Y-92726060D01*
X130618451Y-92727368D01*
X130618449Y-92727368D01*
X130569879Y-92741525D01*
X130364874Y-92801278D01*
X130120763Y-92913815D01*
X130116854Y-92916378D01*
X129899881Y-93058631D01*
X129899876Y-93058635D01*
X129895968Y-93061197D01*
X129859443Y-93093797D01*
X129722204Y-93216288D01*
X129695426Y-93240188D01*
X129523544Y-93446854D01*
X129384096Y-93676656D01*
X129382287Y-93680970D01*
X129382285Y-93680974D01*
X129303420Y-93869048D01*
X129280148Y-93924545D01*
X129213981Y-94185077D01*
X129187050Y-94452526D01*
X122579024Y-94452526D01*
X122582997Y-94446497D01*
X122576935Y-94436145D01*
X121512812Y-93372022D01*
X121498868Y-93364408D01*
X121497035Y-93364539D01*
X121490420Y-93368790D01*
X120426497Y-94432713D01*
X120419839Y-94444906D01*
X115508500Y-94444906D01*
X115508500Y-92957211D01*
X119687775Y-92957211D01*
X119700220Y-93216288D01*
X119701356Y-93225543D01*
X119751961Y-93479945D01*
X119754449Y-93488917D01*
X119842095Y-93733033D01*
X119845895Y-93741568D01*
X119968658Y-93970042D01*
X119973666Y-93977904D01*
X120043720Y-94071716D01*
X120054979Y-94080165D01*
X120067397Y-94073393D01*
X121127978Y-93012812D01*
X121134356Y-93001132D01*
X121864408Y-93001132D01*
X121864539Y-93002965D01*
X121868790Y-93009580D01*
X122936094Y-94076884D01*
X122948474Y-94083644D01*
X122956815Y-94077400D01*
X123090832Y-93869048D01*
X123095275Y-93860864D01*
X123201807Y-93624370D01*
X123204997Y-93615605D01*
X123275402Y-93365972D01*
X123277262Y-93356830D01*
X123310187Y-93098019D01*
X123310668Y-93091733D01*
X123312987Y-93003160D01*
X123312836Y-92996851D01*
X123293501Y-92736663D01*
X123292125Y-92727457D01*
X123234878Y-92474467D01*
X123232154Y-92465556D01*
X123138143Y-92223806D01*
X123134132Y-92215397D01*
X123005422Y-91990202D01*
X123000211Y-91982476D01*
X122956996Y-91927658D01*
X122945071Y-91919187D01*
X122933537Y-91925673D01*
X121872022Y-92987188D01*
X121864408Y-93001132D01*
X121134356Y-93001132D01*
X121135592Y-92998868D01*
X121135461Y-92997035D01*
X121131210Y-92990420D01*
X120065816Y-91925026D01*
X120052507Y-91917758D01*
X120042472Y-91924878D01*
X120026937Y-91943556D01*
X120021531Y-91951135D01*
X119886965Y-92172891D01*
X119882736Y-92181192D01*
X119782432Y-92420389D01*
X119779471Y-92429239D01*
X119715628Y-92680625D01*
X119714006Y-92689822D01*
X119688020Y-92947885D01*
X119687775Y-92957211D01*
X115508500Y-92957211D01*
X115508500Y-91552689D01*
X120417102Y-91552689D01*
X120421675Y-91562465D01*
X121487188Y-92627978D01*
X121501132Y-92635592D01*
X121502965Y-92635461D01*
X121509580Y-92631210D01*
X122574349Y-91566441D01*
X122580733Y-91554751D01*
X122571321Y-91542641D01*
X122424045Y-91440471D01*
X122416010Y-91435738D01*
X122183376Y-91321016D01*
X122174743Y-91317528D01*
X121927703Y-91238450D01*
X121918643Y-91236274D01*
X121662630Y-91194580D01*
X121653343Y-91193768D01*
X121393992Y-91190373D01*
X121384681Y-91190943D01*
X121127682Y-91225919D01*
X121118546Y-91227860D01*
X120869543Y-91300439D01*
X120860800Y-91303707D01*
X120625252Y-91412296D01*
X120617097Y-91416816D01*
X120426240Y-91541947D01*
X120417102Y-91552689D01*
X115508500Y-91552689D01*
X115508500Y-86929733D01*
X116487822Y-86929733D01*
X116487975Y-86934121D01*
X116487975Y-86934127D01*
X116495022Y-87135907D01*
X116497625Y-87210458D01*
X116498387Y-87214781D01*
X116498388Y-87214788D01*
X116529370Y-87390494D01*
X116546402Y-87487087D01*
X116633203Y-87754235D01*
X116756340Y-88006702D01*
X116758795Y-88010341D01*
X116758798Y-88010347D01*
X116831890Y-88118710D01*
X116913415Y-88239576D01*
X117101371Y-88448322D01*
X117316550Y-88628879D01*
X117554764Y-88777731D01*
X117811375Y-88891982D01*
X118081390Y-88969407D01*
X118085740Y-88970018D01*
X118085743Y-88970019D01*
X118188690Y-88984487D01*
X118359552Y-89008500D01*
X118570146Y-89008500D01*
X118572332Y-89008347D01*
X118572336Y-89008347D01*
X118775827Y-88994118D01*
X118775832Y-88994117D01*
X118780212Y-88993811D01*
X119054970Y-88935409D01*
X119059099Y-88933906D01*
X119059103Y-88933905D01*
X119314781Y-88840846D01*
X119314785Y-88840844D01*
X119318926Y-88839337D01*
X119566942Y-88707464D01*
X119671896Y-88631211D01*
X119790629Y-88544947D01*
X119790632Y-88544944D01*
X119794192Y-88542358D01*
X119996252Y-88347231D01*
X120169188Y-88125882D01*
X120171384Y-88122078D01*
X120171389Y-88122071D01*
X120307435Y-87886431D01*
X120309636Y-87882619D01*
X120414862Y-87622176D01*
X120448544Y-87487087D01*
X120481753Y-87353893D01*
X120481754Y-87353888D01*
X120482817Y-87349624D01*
X120488229Y-87298134D01*
X128426500Y-87298134D01*
X128433255Y-87360316D01*
X128484385Y-87496705D01*
X128571739Y-87613261D01*
X128688295Y-87700615D01*
X128824684Y-87751745D01*
X128886866Y-87758500D01*
X130483134Y-87758500D01*
X130545316Y-87751745D01*
X130681705Y-87700615D01*
X130798261Y-87613261D01*
X130885615Y-87496705D01*
X130936745Y-87360316D01*
X130943500Y-87298134D01*
X130943500Y-86766522D01*
X136074037Y-86766522D01*
X136116928Y-86926595D01*
X136120674Y-86936887D01*
X136209056Y-87126421D01*
X136214534Y-87135907D01*
X136334476Y-87307203D01*
X136341530Y-87315610D01*
X136489388Y-87463468D01*
X136497796Y-87470524D01*
X136669088Y-87590464D01*
X136678584Y-87595947D01*
X136868113Y-87684326D01*
X136878405Y-87688072D01*
X137033503Y-87729630D01*
X137047599Y-87729294D01*
X137051000Y-87721352D01*
X137051000Y-87716203D01*
X137559000Y-87716203D01*
X137562973Y-87729734D01*
X137571522Y-87730963D01*
X137731595Y-87688072D01*
X137741887Y-87684326D01*
X137931416Y-87595947D01*
X137940912Y-87590464D01*
X138112204Y-87470524D01*
X138120612Y-87463468D01*
X138268470Y-87315610D01*
X138275524Y-87307203D01*
X138395466Y-87135907D01*
X138400944Y-87126421D01*
X138489326Y-86936887D01*
X138491930Y-86929733D01*
X146487822Y-86929733D01*
X146487975Y-86934121D01*
X146487975Y-86934127D01*
X146495022Y-87135907D01*
X146497625Y-87210458D01*
X146498387Y-87214781D01*
X146498388Y-87214788D01*
X146529370Y-87390494D01*
X146546402Y-87487087D01*
X146633203Y-87754235D01*
X146756340Y-88006702D01*
X146758795Y-88010341D01*
X146758798Y-88010347D01*
X146831890Y-88118710D01*
X146913415Y-88239576D01*
X147101371Y-88448322D01*
X147316550Y-88628879D01*
X147554764Y-88777731D01*
X147811375Y-88891982D01*
X148081390Y-88969407D01*
X148085740Y-88970018D01*
X148085743Y-88970019D01*
X148188690Y-88984487D01*
X148359552Y-89008500D01*
X148570146Y-89008500D01*
X148572332Y-89008347D01*
X148572336Y-89008347D01*
X148775827Y-88994118D01*
X148775832Y-88994117D01*
X148780212Y-88993811D01*
X149054970Y-88935409D01*
X149059099Y-88933906D01*
X149059103Y-88933905D01*
X149314781Y-88840846D01*
X149314785Y-88840844D01*
X149318926Y-88839337D01*
X149566942Y-88707464D01*
X149671896Y-88631211D01*
X149790629Y-88544947D01*
X149790632Y-88544944D01*
X149794192Y-88542358D01*
X149996252Y-88347231D01*
X150169188Y-88125882D01*
X150171384Y-88122078D01*
X150171389Y-88122071D01*
X150307435Y-87886431D01*
X150309636Y-87882619D01*
X150414862Y-87622176D01*
X150448544Y-87487087D01*
X150481753Y-87353893D01*
X150481754Y-87353888D01*
X150482817Y-87349624D01*
X150512178Y-87070267D01*
X150512025Y-87065873D01*
X150502529Y-86793939D01*
X150502528Y-86793933D01*
X150502375Y-86789542D01*
X150499303Y-86772115D01*
X150454360Y-86517236D01*
X150453598Y-86512913D01*
X150366797Y-86245765D01*
X150364052Y-86240135D01*
X150277711Y-86063113D01*
X150243660Y-85993298D01*
X150241205Y-85989659D01*
X150241202Y-85989653D01*
X150156510Y-85864093D01*
X150086585Y-85760424D01*
X149898629Y-85551678D01*
X149683450Y-85371121D01*
X149445236Y-85222269D01*
X149188625Y-85108018D01*
X148960913Y-85042723D01*
X148922837Y-85031805D01*
X148922836Y-85031805D01*
X148918610Y-85030593D01*
X148914260Y-85029982D01*
X148914257Y-85029981D01*
X148790241Y-85012552D01*
X148640448Y-84991500D01*
X148429854Y-84991500D01*
X148427668Y-84991653D01*
X148427664Y-84991653D01*
X148224173Y-85005882D01*
X148224168Y-85005883D01*
X148219788Y-85006189D01*
X147945030Y-85064591D01*
X147940901Y-85066094D01*
X147940897Y-85066095D01*
X147685219Y-85159154D01*
X147685215Y-85159156D01*
X147681074Y-85160663D01*
X147433058Y-85292536D01*
X147429499Y-85295122D01*
X147429497Y-85295123D01*
X147272021Y-85409536D01*
X147205808Y-85457642D01*
X147003748Y-85652769D01*
X146830812Y-85874118D01*
X146828616Y-85877922D01*
X146828611Y-85877929D01*
X146721696Y-86063113D01*
X146690364Y-86117381D01*
X146585138Y-86377824D01*
X146584073Y-86382097D01*
X146584072Y-86382099D01*
X146550379Y-86517236D01*
X146517183Y-86650376D01*
X146516724Y-86654744D01*
X146516723Y-86654749D01*
X146505675Y-86759865D01*
X146487822Y-86929733D01*
X138491930Y-86929733D01*
X138493072Y-86926595D01*
X138534630Y-86771497D01*
X138534294Y-86757401D01*
X138526352Y-86754000D01*
X137577115Y-86754000D01*
X137561876Y-86758475D01*
X137560671Y-86759865D01*
X137559000Y-86767548D01*
X137559000Y-87716203D01*
X137051000Y-87716203D01*
X137051000Y-86772115D01*
X137046525Y-86756876D01*
X137045135Y-86755671D01*
X137037452Y-86754000D01*
X136088797Y-86754000D01*
X136075266Y-86757973D01*
X136074037Y-86766522D01*
X130943500Y-86766522D01*
X130943500Y-86228503D01*
X136075370Y-86228503D01*
X136075706Y-86242599D01*
X136083648Y-86246000D01*
X137032885Y-86246000D01*
X137048124Y-86241525D01*
X137049329Y-86240135D01*
X137051000Y-86232452D01*
X137051000Y-86227885D01*
X137559000Y-86227885D01*
X137563475Y-86243124D01*
X137564865Y-86244329D01*
X137572548Y-86246000D01*
X138521203Y-86246000D01*
X138534734Y-86242027D01*
X138535963Y-86233478D01*
X138493072Y-86073405D01*
X138489326Y-86063113D01*
X138400944Y-85873579D01*
X138395466Y-85864093D01*
X138275524Y-85692797D01*
X138268470Y-85684390D01*
X138120612Y-85536532D01*
X138112204Y-85529476D01*
X137940912Y-85409536D01*
X137931416Y-85404053D01*
X137741887Y-85315674D01*
X137731595Y-85311928D01*
X137576497Y-85270370D01*
X137562401Y-85270706D01*
X137559000Y-85278648D01*
X137559000Y-86227885D01*
X137051000Y-86227885D01*
X137051000Y-85283797D01*
X137047027Y-85270266D01*
X137038478Y-85269037D01*
X136878405Y-85311928D01*
X136868113Y-85315674D01*
X136678579Y-85404056D01*
X136669093Y-85409534D01*
X136497797Y-85529476D01*
X136489390Y-85536530D01*
X136341530Y-85684390D01*
X136334476Y-85692797D01*
X136214534Y-85864093D01*
X136209056Y-85873579D01*
X136120674Y-86063113D01*
X136116928Y-86073405D01*
X136075370Y-86228503D01*
X130943500Y-86228503D01*
X130943500Y-85701866D01*
X130936745Y-85639684D01*
X130885615Y-85503295D01*
X130798261Y-85386739D01*
X130681705Y-85299385D01*
X130545316Y-85248255D01*
X130483134Y-85241500D01*
X128886866Y-85241500D01*
X128824684Y-85248255D01*
X128688295Y-85299385D01*
X128571739Y-85386739D01*
X128484385Y-85503295D01*
X128433255Y-85639684D01*
X128426500Y-85701866D01*
X128426500Y-87298134D01*
X120488229Y-87298134D01*
X120512178Y-87070267D01*
X120512025Y-87065873D01*
X120502529Y-86793939D01*
X120502528Y-86793933D01*
X120502375Y-86789542D01*
X120499303Y-86772115D01*
X120454360Y-86517236D01*
X120453598Y-86512913D01*
X120366797Y-86245765D01*
X120364052Y-86240135D01*
X120277711Y-86063113D01*
X120243660Y-85993298D01*
X120241205Y-85989659D01*
X120241202Y-85989653D01*
X120156510Y-85864093D01*
X120086585Y-85760424D01*
X119898629Y-85551678D01*
X119683450Y-85371121D01*
X119445236Y-85222269D01*
X119188625Y-85108018D01*
X118960913Y-85042723D01*
X118922837Y-85031805D01*
X118922836Y-85031805D01*
X118918610Y-85030593D01*
X118914260Y-85029982D01*
X118914257Y-85029981D01*
X118790241Y-85012552D01*
X118640448Y-84991500D01*
X118429854Y-84991500D01*
X118427668Y-84991653D01*
X118427664Y-84991653D01*
X118224173Y-85005882D01*
X118224168Y-85005883D01*
X118219788Y-85006189D01*
X117945030Y-85064591D01*
X117940901Y-85066094D01*
X117940897Y-85066095D01*
X117685219Y-85159154D01*
X117685215Y-85159156D01*
X117681074Y-85160663D01*
X117433058Y-85292536D01*
X117429499Y-85295122D01*
X117429497Y-85295123D01*
X117272021Y-85409536D01*
X117205808Y-85457642D01*
X117003748Y-85652769D01*
X116830812Y-85874118D01*
X116828616Y-85877922D01*
X116828611Y-85877929D01*
X116721696Y-86063113D01*
X116690364Y-86117381D01*
X116585138Y-86377824D01*
X116584073Y-86382097D01*
X116584072Y-86382099D01*
X116550379Y-86517236D01*
X116517183Y-86650376D01*
X116516724Y-86654744D01*
X116516723Y-86654749D01*
X116505675Y-86759865D01*
X116487822Y-86929733D01*
X115508500Y-86929733D01*
X115508500Y-85053250D01*
X115510246Y-85032345D01*
X115512770Y-85017344D01*
X115512770Y-85017341D01*
X115513576Y-85012552D01*
X115513729Y-85000000D01*
X115513040Y-84995188D01*
X115512723Y-84990327D01*
X115513008Y-84990308D01*
X115512607Y-84963549D01*
X115519234Y-84904736D01*
X115525513Y-84877229D01*
X115552485Y-84800147D01*
X115564727Y-84774726D01*
X115608178Y-84705574D01*
X115625770Y-84683515D01*
X115683515Y-84625770D01*
X115705574Y-84608178D01*
X115774726Y-84564727D01*
X115800147Y-84552485D01*
X115877228Y-84525513D01*
X115904736Y-84519234D01*
X115960226Y-84512982D01*
X115975868Y-84513077D01*
X115975879Y-84512200D01*
X115984851Y-84512310D01*
X115993724Y-84513691D01*
X116002626Y-84512527D01*
X116002628Y-84512527D01*
X116017951Y-84510523D01*
X116025286Y-84509564D01*
X116041621Y-84508500D01*
X150950633Y-84508500D01*
X150970018Y-84510000D01*
G37*
%TD.AperFunction*%
%TD*%
M02*
