%TF.GenerationSoftware,KiCad,Pcbnew,(6.0.7)*%
%TF.CreationDate,2022-10-05T08:21:53-05:00*%
%TF.ProjectId,SolenoidHandlerBoard,536f6c65-6e6f-4696-9448-616e646c6572,rev?*%
%TF.SameCoordinates,Original*%
%TF.FileFunction,Legend,Top*%
%TF.FilePolarity,Positive*%
%FSLAX46Y46*%
G04 Gerber Fmt 4.6, Leading zero omitted, Abs format (unit mm)*
G04 Created by KiCad (PCBNEW (6.0.7)) date 2022-10-05 08:21:53*
%MOMM*%
%LPD*%
G01*
G04 APERTURE LIST*
%ADD10C,0.150000*%
%ADD11C,0.120000*%
G04 APERTURE END LIST*
D10*
X116428571Y-90357142D02*
X116428571Y-91119047D01*
X116095238Y-91547619D02*
X116047619Y-91690476D01*
X116047619Y-91928571D01*
X116095238Y-92023809D01*
X116142857Y-92071428D01*
X116238095Y-92119047D01*
X116333333Y-92119047D01*
X116428571Y-92071428D01*
X116476190Y-92023809D01*
X116523809Y-91928571D01*
X116571428Y-91738095D01*
X116619047Y-91642857D01*
X116666666Y-91595238D01*
X116761904Y-91547619D01*
X116857142Y-91547619D01*
X116952380Y-91595238D01*
X117000000Y-91642857D01*
X117047619Y-91738095D01*
X117047619Y-91976190D01*
X117000000Y-92119047D01*
X117047619Y-92738095D02*
X117047619Y-92928571D01*
X117000000Y-93023809D01*
X116904761Y-93119047D01*
X116714285Y-93166666D01*
X116380952Y-93166666D01*
X116190476Y-93119047D01*
X116095238Y-93023809D01*
X116047619Y-92928571D01*
X116047619Y-92738095D01*
X116095238Y-92642857D01*
X116190476Y-92547619D01*
X116380952Y-92500000D01*
X116714285Y-92500000D01*
X116904761Y-92547619D01*
X117000000Y-92642857D01*
X117047619Y-92738095D01*
X116047619Y-94071428D02*
X116047619Y-93595238D01*
X117047619Y-93595238D01*
X116571428Y-94404761D02*
X116571428Y-94738095D01*
X116047619Y-94880952D02*
X116047619Y-94404761D01*
X117047619Y-94404761D01*
X117047619Y-94880952D01*
X116047619Y-95309523D02*
X117047619Y-95309523D01*
X116047619Y-95880952D01*
X117047619Y-95880952D01*
X117047619Y-96547619D02*
X117047619Y-96738095D01*
X117000000Y-96833333D01*
X116904761Y-96928571D01*
X116714285Y-96976190D01*
X116380952Y-96976190D01*
X116190476Y-96928571D01*
X116095238Y-96833333D01*
X116047619Y-96738095D01*
X116047619Y-96547619D01*
X116095238Y-96452380D01*
X116190476Y-96357142D01*
X116380952Y-96309523D01*
X116714285Y-96309523D01*
X116904761Y-96357142D01*
X117000000Y-96452380D01*
X117047619Y-96547619D01*
X116047619Y-97404761D02*
X117047619Y-97404761D01*
X116047619Y-97880952D02*
X117047619Y-97880952D01*
X117047619Y-98119047D01*
X117000000Y-98261904D01*
X116904761Y-98357142D01*
X116809523Y-98404761D01*
X116619047Y-98452380D01*
X116476190Y-98452380D01*
X116285714Y-98404761D01*
X116190476Y-98357142D01*
X116095238Y-98261904D01*
X116047619Y-98119047D01*
X116047619Y-97880952D01*
X116428571Y-98880952D02*
X116428571Y-99642857D01*
X116047619Y-99261904D02*
X116809523Y-99261904D01*
X131595238Y-100452380D02*
X131261904Y-99976190D01*
X131023809Y-100452380D02*
X131023809Y-99452380D01*
X131404761Y-99452380D01*
X131500000Y-99500000D01*
X131547619Y-99547619D01*
X131595238Y-99642857D01*
X131595238Y-99785714D01*
X131547619Y-99880952D01*
X131500000Y-99928571D01*
X131404761Y-99976190D01*
X131023809Y-99976190D01*
X132023809Y-99928571D02*
X132357142Y-99928571D01*
X132500000Y-100452380D02*
X132023809Y-100452380D01*
X132023809Y-99452380D01*
X132500000Y-99452380D01*
X133404761Y-100452380D02*
X132928571Y-100452380D01*
X132928571Y-99452380D01*
X133690476Y-100166666D02*
X134166666Y-100166666D01*
X133595238Y-100452380D02*
X133928571Y-99452380D01*
X134261904Y-100452380D01*
X134785714Y-99976190D02*
X134785714Y-100452380D01*
X134452380Y-99452380D02*
X134785714Y-99976190D01*
X135119047Y-99452380D01*
X127385714Y-85361904D02*
X127385714Y-84561904D01*
X127576190Y-84561904D01*
X127690476Y-84600000D01*
X127766666Y-84676190D01*
X127804761Y-84752380D01*
X127842857Y-84904761D01*
X127842857Y-85019047D01*
X127804761Y-85171428D01*
X127766666Y-85247619D01*
X127690476Y-85323809D01*
X127576190Y-85361904D01*
X127385714Y-85361904D01*
X128642857Y-85285714D02*
X128604761Y-85323809D01*
X128490476Y-85361904D01*
X128414285Y-85361904D01*
X128300000Y-85323809D01*
X128223809Y-85247619D01*
X128185714Y-85171428D01*
X128147619Y-85019047D01*
X128147619Y-84904761D01*
X128185714Y-84752380D01*
X128223809Y-84676190D01*
X128300000Y-84600000D01*
X128414285Y-84561904D01*
X128490476Y-84561904D01*
X128604761Y-84600000D01*
X128642857Y-84638095D01*
X129595238Y-85057142D02*
X130204761Y-85057142D01*
X131614285Y-85361904D02*
X131157142Y-85361904D01*
X131385714Y-85361904D02*
X131385714Y-84561904D01*
X131309523Y-84676190D01*
X131233333Y-84752380D01*
X131157142Y-84790476D01*
X131957142Y-85361904D02*
X131957142Y-84561904D01*
X132414285Y-85361904D01*
X132414285Y-84561904D01*
X133138095Y-84828571D02*
X133138095Y-85361904D01*
X132947619Y-84523809D02*
X132757142Y-85095238D01*
X133252380Y-85095238D01*
X133709523Y-84561904D02*
X133785714Y-84561904D01*
X133861904Y-84600000D01*
X133900000Y-84638095D01*
X133938095Y-84714285D01*
X133976190Y-84866666D01*
X133976190Y-85057142D01*
X133938095Y-85209523D01*
X133900000Y-85285714D01*
X133861904Y-85323809D01*
X133785714Y-85361904D01*
X133709523Y-85361904D01*
X133633333Y-85323809D01*
X133595238Y-85285714D01*
X133557142Y-85209523D01*
X133519047Y-85057142D01*
X133519047Y-84866666D01*
X133557142Y-84714285D01*
X133595238Y-84638095D01*
X133633333Y-84600000D01*
X133709523Y-84561904D01*
X134471428Y-84561904D02*
X134547619Y-84561904D01*
X134623809Y-84600000D01*
X134661904Y-84638095D01*
X134700000Y-84714285D01*
X134738095Y-84866666D01*
X134738095Y-85057142D01*
X134700000Y-85209523D01*
X134661904Y-85285714D01*
X134623809Y-85323809D01*
X134547619Y-85361904D01*
X134471428Y-85361904D01*
X134395238Y-85323809D01*
X134357142Y-85285714D01*
X134319047Y-85209523D01*
X134280952Y-85057142D01*
X134280952Y-84866666D01*
X134319047Y-84714285D01*
X134357142Y-84638095D01*
X134395238Y-84600000D01*
X134471428Y-84561904D01*
X135500000Y-85361904D02*
X135042857Y-85361904D01*
X135271428Y-85361904D02*
X135271428Y-84561904D01*
X135195238Y-84676190D01*
X135119047Y-84752380D01*
X135042857Y-84790476D01*
X136452380Y-85361904D02*
X136452380Y-84561904D01*
X136642857Y-84561904D01*
X136757142Y-84600000D01*
X136833333Y-84676190D01*
X136871428Y-84752380D01*
X136909523Y-84904761D01*
X136909523Y-85019047D01*
X136871428Y-85171428D01*
X136833333Y-85247619D01*
X136757142Y-85323809D01*
X136642857Y-85361904D01*
X136452380Y-85361904D01*
X137252380Y-85361904D02*
X137252380Y-84561904D01*
X137785714Y-84561904D02*
X137938095Y-84561904D01*
X138014285Y-84600000D01*
X138090476Y-84676190D01*
X138128571Y-84828571D01*
X138128571Y-85095238D01*
X138090476Y-85247619D01*
X138014285Y-85323809D01*
X137938095Y-85361904D01*
X137785714Y-85361904D01*
X137709523Y-85323809D01*
X137633333Y-85247619D01*
X137595238Y-85095238D01*
X137595238Y-84828571D01*
X137633333Y-84676190D01*
X137709523Y-84600000D01*
X137785714Y-84561904D01*
X138471428Y-85361904D02*
X138471428Y-84561904D01*
X138661904Y-84561904D01*
X138776190Y-84600000D01*
X138852380Y-84676190D01*
X138890476Y-84752380D01*
X138928571Y-84904761D01*
X138928571Y-85019047D01*
X138890476Y-85171428D01*
X138852380Y-85247619D01*
X138776190Y-85323809D01*
X138661904Y-85361904D01*
X138471428Y-85361904D01*
X139271428Y-84942857D02*
X139538095Y-84942857D01*
X139652380Y-85361904D02*
X139271428Y-85361904D01*
X139271428Y-84561904D01*
X139652380Y-84561904D01*
X140228571Y-88688428D02*
X140371428Y-89288428D01*
X140485714Y-88859857D01*
X140600000Y-89288428D01*
X140742857Y-88688428D01*
X141085714Y-88688428D02*
X141200000Y-88688428D01*
X141257142Y-88717000D01*
X141314285Y-88774142D01*
X141342857Y-88888428D01*
X141342857Y-89088428D01*
X141314285Y-89202714D01*
X141257142Y-89259857D01*
X141200000Y-89288428D01*
X141085714Y-89288428D01*
X141028571Y-89259857D01*
X140971428Y-89202714D01*
X140942857Y-89088428D01*
X140942857Y-88888428D01*
X140971428Y-88774142D01*
X141028571Y-88717000D01*
X141085714Y-88688428D01*
X141942857Y-89288428D02*
X141742857Y-89002714D01*
X141600000Y-89288428D02*
X141600000Y-88688428D01*
X141828571Y-88688428D01*
X141885714Y-88717000D01*
X141914285Y-88745571D01*
X141942857Y-88802714D01*
X141942857Y-88888428D01*
X141914285Y-88945571D01*
X141885714Y-88974142D01*
X141828571Y-89002714D01*
X141600000Y-89002714D01*
X142200000Y-89288428D02*
X142200000Y-88688428D01*
X142542857Y-89288428D02*
X142285714Y-88945571D01*
X142542857Y-88688428D02*
X142200000Y-89031285D01*
X142771428Y-89259857D02*
X142857142Y-89288428D01*
X143000000Y-89288428D01*
X143057142Y-89259857D01*
X143085714Y-89231285D01*
X143114285Y-89174142D01*
X143114285Y-89117000D01*
X143085714Y-89059857D01*
X143057142Y-89031285D01*
X143000000Y-89002714D01*
X142885714Y-88974142D01*
X142828571Y-88945571D01*
X142800000Y-88917000D01*
X142771428Y-88859857D01*
X142771428Y-88802714D01*
X142800000Y-88745571D01*
X142828571Y-88717000D01*
X142885714Y-88688428D01*
X143028571Y-88688428D01*
X143114285Y-88717000D01*
X144028571Y-88974142D02*
X143828571Y-88974142D01*
X143828571Y-89288428D02*
X143828571Y-88688428D01*
X144114285Y-88688428D01*
X144457142Y-88688428D02*
X144571428Y-88688428D01*
X144628571Y-88717000D01*
X144685714Y-88774142D01*
X144714285Y-88888428D01*
X144714285Y-89088428D01*
X144685714Y-89202714D01*
X144628571Y-89259857D01*
X144571428Y-89288428D01*
X144457142Y-89288428D01*
X144400000Y-89259857D01*
X144342857Y-89202714D01*
X144314285Y-89088428D01*
X144314285Y-88888428D01*
X144342857Y-88774142D01*
X144400000Y-88717000D01*
X144457142Y-88688428D01*
X145314285Y-89288428D02*
X145114285Y-89002714D01*
X144971428Y-89288428D02*
X144971428Y-88688428D01*
X145200000Y-88688428D01*
X145257142Y-88717000D01*
X145285714Y-88745571D01*
X145314285Y-88802714D01*
X145314285Y-88888428D01*
X145285714Y-88945571D01*
X145257142Y-88974142D01*
X145200000Y-89002714D01*
X144971428Y-89002714D01*
X146000000Y-89117000D02*
X146285714Y-89117000D01*
X145942857Y-89288428D02*
X146142857Y-88688428D01*
X146342857Y-89288428D01*
X146885714Y-89231285D02*
X146857142Y-89259857D01*
X146771428Y-89288428D01*
X146714285Y-89288428D01*
X146628571Y-89259857D01*
X146571428Y-89202714D01*
X146542857Y-89145571D01*
X146514285Y-89031285D01*
X146514285Y-88945571D01*
X146542857Y-88831285D01*
X146571428Y-88774142D01*
X146628571Y-88717000D01*
X146714285Y-88688428D01*
X146771428Y-88688428D01*
X146857142Y-88717000D01*
X146885714Y-88745571D01*
X147571428Y-89117000D02*
X147857142Y-89117000D01*
X147514285Y-89288428D02*
X147714285Y-88688428D01*
X147914285Y-89288428D01*
X148114285Y-89288428D02*
X148114285Y-88688428D01*
X148457142Y-89288428D01*
X148457142Y-88688428D01*
X148742857Y-89288428D02*
X148742857Y-88688428D01*
X148885714Y-88688428D01*
X148971428Y-88717000D01*
X149028571Y-88774142D01*
X149057142Y-88831285D01*
X149085714Y-88945571D01*
X149085714Y-89031285D01*
X149057142Y-89145571D01*
X149028571Y-89202714D01*
X148971428Y-89259857D01*
X148885714Y-89288428D01*
X148742857Y-89288428D01*
X149800000Y-89288428D02*
X149800000Y-88688428D01*
X149942857Y-88688428D01*
X150028571Y-88717000D01*
X150085714Y-88774142D01*
X150114285Y-88831285D01*
X150142857Y-88945571D01*
X150142857Y-89031285D01*
X150114285Y-89145571D01*
X150085714Y-89202714D01*
X150028571Y-89259857D01*
X149942857Y-89288428D01*
X149800000Y-89288428D01*
X150742857Y-89231285D02*
X150714285Y-89259857D01*
X150628571Y-89288428D01*
X150571428Y-89288428D01*
X150485714Y-89259857D01*
X150428571Y-89202714D01*
X150400000Y-89145571D01*
X150371428Y-89031285D01*
X150371428Y-88945571D01*
X150400000Y-88831285D01*
X150428571Y-88774142D01*
X150485714Y-88717000D01*
X150571428Y-88688428D01*
X150628571Y-88688428D01*
X150714285Y-88717000D01*
X150742857Y-88745571D01*
X139428571Y-90254428D02*
X139428571Y-89654428D01*
X139571428Y-89654428D01*
X139657142Y-89683000D01*
X139714285Y-89740142D01*
X139742857Y-89797285D01*
X139771428Y-89911571D01*
X139771428Y-89997285D01*
X139742857Y-90111571D01*
X139714285Y-90168714D01*
X139657142Y-90225857D01*
X139571428Y-90254428D01*
X139428571Y-90254428D01*
X140371428Y-90197285D02*
X140342857Y-90225857D01*
X140257142Y-90254428D01*
X140200000Y-90254428D01*
X140114285Y-90225857D01*
X140057142Y-90168714D01*
X140028571Y-90111571D01*
X140000000Y-89997285D01*
X140000000Y-89911571D01*
X140028571Y-89797285D01*
X140057142Y-89740142D01*
X140114285Y-89683000D01*
X140200000Y-89654428D01*
X140257142Y-89654428D01*
X140342857Y-89683000D01*
X140371428Y-89711571D01*
X141085714Y-90254428D02*
X141085714Y-89654428D01*
X141285714Y-90083000D01*
X141485714Y-89654428D01*
X141485714Y-90254428D01*
X141771428Y-89654428D02*
X141771428Y-90140142D01*
X141800000Y-90197285D01*
X141828571Y-90225857D01*
X141885714Y-90254428D01*
X142000000Y-90254428D01*
X142057142Y-90225857D01*
X142085714Y-90197285D01*
X142114285Y-90140142D01*
X142114285Y-89654428D01*
X142371428Y-90225857D02*
X142457142Y-90254428D01*
X142600000Y-90254428D01*
X142657142Y-90225857D01*
X142685714Y-90197285D01*
X142714285Y-90140142D01*
X142714285Y-90083000D01*
X142685714Y-90025857D01*
X142657142Y-89997285D01*
X142600000Y-89968714D01*
X142485714Y-89940142D01*
X142428571Y-89911571D01*
X142400000Y-89883000D01*
X142371428Y-89825857D01*
X142371428Y-89768714D01*
X142400000Y-89711571D01*
X142428571Y-89683000D01*
X142485714Y-89654428D01*
X142628571Y-89654428D01*
X142714285Y-89683000D01*
X142885714Y-89654428D02*
X143228571Y-89654428D01*
X143057142Y-90254428D02*
X143057142Y-89654428D01*
X144085714Y-89940142D02*
X143885714Y-89940142D01*
X143885714Y-90254428D02*
X143885714Y-89654428D01*
X144171428Y-89654428D01*
X144514285Y-89654428D02*
X144628571Y-89654428D01*
X144685714Y-89683000D01*
X144742857Y-89740142D01*
X144771428Y-89854428D01*
X144771428Y-90054428D01*
X144742857Y-90168714D01*
X144685714Y-90225857D01*
X144628571Y-90254428D01*
X144514285Y-90254428D01*
X144457142Y-90225857D01*
X144400000Y-90168714D01*
X144371428Y-90054428D01*
X144371428Y-89854428D01*
X144400000Y-89740142D01*
X144457142Y-89683000D01*
X144514285Y-89654428D01*
X145314285Y-90254428D02*
X145028571Y-90254428D01*
X145028571Y-89654428D01*
X145800000Y-90254428D02*
X145514285Y-90254428D01*
X145514285Y-89654428D01*
X146114285Y-89654428D02*
X146228571Y-89654428D01*
X146285714Y-89683000D01*
X146342857Y-89740142D01*
X146371428Y-89854428D01*
X146371428Y-90054428D01*
X146342857Y-90168714D01*
X146285714Y-90225857D01*
X146228571Y-90254428D01*
X146114285Y-90254428D01*
X146057142Y-90225857D01*
X146000000Y-90168714D01*
X145971428Y-90054428D01*
X145971428Y-89854428D01*
X146000000Y-89740142D01*
X146057142Y-89683000D01*
X146114285Y-89654428D01*
X146571428Y-89654428D02*
X146714285Y-90254428D01*
X146828571Y-89825857D01*
X146942857Y-90254428D01*
X147085714Y-89654428D01*
X147771428Y-90254428D02*
X147771428Y-89654428D01*
X148000000Y-89654428D01*
X148057142Y-89683000D01*
X148085714Y-89711571D01*
X148114285Y-89768714D01*
X148114285Y-89854428D01*
X148085714Y-89911571D01*
X148057142Y-89940142D01*
X148000000Y-89968714D01*
X147771428Y-89968714D01*
X148485714Y-89654428D02*
X148600000Y-89654428D01*
X148657142Y-89683000D01*
X148714285Y-89740142D01*
X148742857Y-89854428D01*
X148742857Y-90054428D01*
X148714285Y-90168714D01*
X148657142Y-90225857D01*
X148600000Y-90254428D01*
X148485714Y-90254428D01*
X148428571Y-90225857D01*
X148371428Y-90168714D01*
X148342857Y-90054428D01*
X148342857Y-89854428D01*
X148371428Y-89740142D01*
X148428571Y-89683000D01*
X148485714Y-89654428D01*
X149285714Y-90254428D02*
X149000000Y-90254428D01*
X149000000Y-89654428D01*
X149457142Y-90083000D02*
X149742857Y-90083000D01*
X149400000Y-90254428D02*
X149600000Y-89654428D01*
X149800000Y-90254428D01*
X150342857Y-90254428D02*
X150142857Y-89968714D01*
X150000000Y-90254428D02*
X150000000Y-89654428D01*
X150228571Y-89654428D01*
X150285714Y-89683000D01*
X150314285Y-89711571D01*
X150342857Y-89768714D01*
X150342857Y-89854428D01*
X150314285Y-89911571D01*
X150285714Y-89940142D01*
X150228571Y-89968714D01*
X150000000Y-89968714D01*
X150600000Y-90254428D02*
X150600000Y-89654428D01*
X150800000Y-89654428D02*
X151142857Y-89654428D01*
X150971428Y-90254428D02*
X150971428Y-89654428D01*
X151457142Y-89968714D02*
X151457142Y-90254428D01*
X151257142Y-89654428D02*
X151457142Y-89968714D01*
X151657142Y-89654428D01*
X126966666Y-88133333D02*
X127347619Y-88133333D01*
X126890476Y-88361904D02*
X127157142Y-87561904D01*
X127423809Y-88361904D01*
X128147619Y-88285714D02*
X128109523Y-88323809D01*
X127995238Y-88361904D01*
X127919047Y-88361904D01*
X127804761Y-88323809D01*
X127728571Y-88247619D01*
X127690476Y-88171428D01*
X127652380Y-88019047D01*
X127652380Y-87904761D01*
X127690476Y-87752380D01*
X127728571Y-87676190D01*
X127804761Y-87600000D01*
X127919047Y-87561904D01*
X127995238Y-87561904D01*
X128109523Y-87600000D01*
X128147619Y-87638095D01*
X128490476Y-88057142D02*
X129100000Y-88057142D01*
X129633333Y-87561904D02*
X129709523Y-87561904D01*
X129785714Y-87600000D01*
X129823809Y-87638095D01*
X129861904Y-87714285D01*
X129900000Y-87866666D01*
X129900000Y-88057142D01*
X129861904Y-88209523D01*
X129823809Y-88285714D01*
X129785714Y-88323809D01*
X129709523Y-88361904D01*
X129633333Y-88361904D01*
X129557142Y-88323809D01*
X129519047Y-88285714D01*
X129480952Y-88209523D01*
X129442857Y-88057142D01*
X129442857Y-87866666D01*
X129480952Y-87714285D01*
X129519047Y-87638095D01*
X129557142Y-87600000D01*
X129633333Y-87561904D01*
X130242857Y-88285714D02*
X130280952Y-88323809D01*
X130242857Y-88361904D01*
X130204761Y-88323809D01*
X130242857Y-88285714D01*
X130242857Y-88361904D01*
X131042857Y-88361904D02*
X130585714Y-88361904D01*
X130814285Y-88361904D02*
X130814285Y-87561904D01*
X130738095Y-87676190D01*
X130661904Y-87752380D01*
X130585714Y-87790476D01*
X131385714Y-87561904D02*
X131385714Y-88209523D01*
X131423809Y-88285714D01*
X131461904Y-88323809D01*
X131538095Y-88361904D01*
X131690476Y-88361904D01*
X131766666Y-88323809D01*
X131804761Y-88285714D01*
X131842857Y-88209523D01*
X131842857Y-87561904D01*
X132490476Y-87942857D02*
X132223809Y-87942857D01*
X132223809Y-88361904D02*
X132223809Y-87561904D01*
X132604761Y-87561904D01*
X133480952Y-87638095D02*
X133519047Y-87600000D01*
X133595238Y-87561904D01*
X133785714Y-87561904D01*
X133861904Y-87600000D01*
X133900000Y-87638095D01*
X133938095Y-87714285D01*
X133938095Y-87790476D01*
X133900000Y-87904761D01*
X133442857Y-88361904D01*
X133938095Y-88361904D01*
X134661904Y-87561904D02*
X134280952Y-87561904D01*
X134242857Y-87942857D01*
X134280952Y-87904761D01*
X134357142Y-87866666D01*
X134547619Y-87866666D01*
X134623809Y-87904761D01*
X134661904Y-87942857D01*
X134700000Y-88019047D01*
X134700000Y-88209523D01*
X134661904Y-88285714D01*
X134623809Y-88323809D01*
X134547619Y-88361904D01*
X134357142Y-88361904D01*
X134280952Y-88323809D01*
X134242857Y-88285714D01*
X135195238Y-87561904D02*
X135271428Y-87561904D01*
X135347619Y-87600000D01*
X135385714Y-87638095D01*
X135423809Y-87714285D01*
X135461904Y-87866666D01*
X135461904Y-88057142D01*
X135423809Y-88209523D01*
X135385714Y-88285714D01*
X135347619Y-88323809D01*
X135271428Y-88361904D01*
X135195238Y-88361904D01*
X135119047Y-88323809D01*
X135080952Y-88285714D01*
X135042857Y-88209523D01*
X135004761Y-88057142D01*
X135004761Y-87866666D01*
X135042857Y-87714285D01*
X135080952Y-87638095D01*
X135119047Y-87600000D01*
X135195238Y-87561904D01*
X135690476Y-87561904D02*
X135957142Y-88361904D01*
X136223809Y-87561904D01*
X136490476Y-88057142D02*
X137100000Y-88057142D01*
X136795238Y-88361904D02*
X136795238Y-87752380D01*
X138547619Y-88285714D02*
X138509523Y-88323809D01*
X138395238Y-88361904D01*
X138319047Y-88361904D01*
X138204761Y-88323809D01*
X138128571Y-88247619D01*
X138090476Y-88171428D01*
X138052380Y-88019047D01*
X138052380Y-87904761D01*
X138090476Y-87752380D01*
X138128571Y-87676190D01*
X138204761Y-87600000D01*
X138319047Y-87561904D01*
X138395238Y-87561904D01*
X138509523Y-87600000D01*
X138547619Y-87638095D01*
X138852380Y-88133333D02*
X139233333Y-88133333D01*
X138776190Y-88361904D02*
X139042857Y-87561904D01*
X139309523Y-88361904D01*
X139576190Y-88361904D02*
X139576190Y-87561904D01*
X139880952Y-87561904D01*
X139957142Y-87600000D01*
X139995238Y-87638095D01*
X140033333Y-87714285D01*
X140033333Y-87828571D01*
X139995238Y-87904761D01*
X139957142Y-87942857D01*
X139880952Y-87980952D01*
X139576190Y-87980952D01*
X150571428Y-99333333D02*
X150571428Y-98571428D01*
X150952380Y-98952380D02*
X150190476Y-98952380D01*
X150904761Y-98142857D02*
X150952380Y-98000000D01*
X150952380Y-97761904D01*
X150904761Y-97666666D01*
X150857142Y-97619047D01*
X150761904Y-97571428D01*
X150666666Y-97571428D01*
X150571428Y-97619047D01*
X150523809Y-97666666D01*
X150476190Y-97761904D01*
X150428571Y-97952380D01*
X150380952Y-98047619D01*
X150333333Y-98095238D01*
X150238095Y-98142857D01*
X150142857Y-98142857D01*
X150047619Y-98095238D01*
X150000000Y-98047619D01*
X149952380Y-97952380D01*
X149952380Y-97714285D01*
X150000000Y-97571428D01*
X149952380Y-97142857D02*
X150761904Y-97142857D01*
X150857142Y-97095238D01*
X150904761Y-97047619D01*
X150952380Y-96952380D01*
X150952380Y-96761904D01*
X150904761Y-96666666D01*
X150857142Y-96619047D01*
X150761904Y-96571428D01*
X149952380Y-96571428D01*
X150952380Y-96095238D02*
X149952380Y-96095238D01*
X149952380Y-95714285D01*
X150000000Y-95619047D01*
X150047619Y-95571428D01*
X150142857Y-95523809D01*
X150285714Y-95523809D01*
X150380952Y-95571428D01*
X150428571Y-95619047D01*
X150476190Y-95714285D01*
X150476190Y-96095238D01*
X150952380Y-95095238D02*
X149952380Y-95095238D01*
X149952380Y-94714285D01*
X150000000Y-94619047D01*
X150047619Y-94571428D01*
X150142857Y-94523809D01*
X150285714Y-94523809D01*
X150380952Y-94571428D01*
X150428571Y-94619047D01*
X150476190Y-94714285D01*
X150476190Y-95095238D01*
X150952380Y-93619047D02*
X150952380Y-94095238D01*
X149952380Y-94095238D01*
X150476190Y-93095238D02*
X150952380Y-93095238D01*
X149952380Y-93428571D02*
X150476190Y-93095238D01*
X149952380Y-92761904D01*
X150571428Y-92428571D02*
X150571428Y-91666666D01*
X120785714Y-87647380D02*
X121404761Y-87647380D01*
X121071428Y-88028333D01*
X121214285Y-88028333D01*
X121309523Y-88075952D01*
X121357142Y-88123571D01*
X121404761Y-88218809D01*
X121404761Y-88456904D01*
X121357142Y-88552142D01*
X121309523Y-88599761D01*
X121214285Y-88647380D01*
X120928571Y-88647380D01*
X120833333Y-88599761D01*
X120785714Y-88552142D01*
X122547619Y-88361666D02*
X123023809Y-88361666D01*
X122452380Y-88647380D02*
X122785714Y-87647380D01*
X123119047Y-88647380D01*
X123452380Y-88647380D02*
X123452380Y-87647380D01*
X123785714Y-88361666D01*
X124119047Y-87647380D01*
X124119047Y-88647380D01*
X124595238Y-88647380D02*
X124595238Y-87647380D01*
X124976190Y-87647380D01*
X125071428Y-87695000D01*
X125119047Y-87742619D01*
X125166666Y-87837857D01*
X125166666Y-87980714D01*
X125119047Y-88075952D01*
X125071428Y-88123571D01*
X124976190Y-88171190D01*
X124595238Y-88171190D01*
X121761904Y-90257380D02*
X121761904Y-89257380D01*
X122095238Y-89971666D01*
X122428571Y-89257380D01*
X122428571Y-90257380D01*
X122857142Y-89971666D02*
X123333333Y-89971666D01*
X122761904Y-90257380D02*
X123095238Y-89257380D01*
X123428571Y-90257380D01*
X123666666Y-89257380D02*
X124333333Y-90257380D01*
X124333333Y-89257380D02*
X123666666Y-90257380D01*
%TO.C,D1*%
X128452380Y-87238095D02*
X127452380Y-87238095D01*
X127452380Y-87000000D01*
X127500000Y-86857142D01*
X127595238Y-86761904D01*
X127690476Y-86714285D01*
X127880952Y-86666666D01*
X128023809Y-86666666D01*
X128214285Y-86714285D01*
X128309523Y-86761904D01*
X128404761Y-86857142D01*
X128452380Y-87000000D01*
X128452380Y-87238095D01*
X128452380Y-85714285D02*
X128452380Y-86285714D01*
X128452380Y-86000000D02*
X127452380Y-86000000D01*
X127595238Y-86095238D01*
X127690476Y-86190476D01*
X127738095Y-86285714D01*
%TO.C,J2*%
X127452380Y-90333333D02*
X128166666Y-90333333D01*
X128309523Y-90380952D01*
X128404761Y-90476190D01*
X128452380Y-90619047D01*
X128452380Y-90714285D01*
X127547619Y-89904761D02*
X127500000Y-89857142D01*
X127452380Y-89761904D01*
X127452380Y-89523809D01*
X127500000Y-89428571D01*
X127547619Y-89380952D01*
X127642857Y-89333333D01*
X127738095Y-89333333D01*
X127880952Y-89380952D01*
X128452380Y-89952380D01*
X128452380Y-89333333D01*
%TO.C,J3*%
X138952380Y-91833333D02*
X139666666Y-91833333D01*
X139809523Y-91880952D01*
X139904761Y-91976190D01*
X139952380Y-92119047D01*
X139952380Y-92214285D01*
X138952380Y-91452380D02*
X138952380Y-90833333D01*
X139333333Y-91166666D01*
X139333333Y-91023809D01*
X139380952Y-90928571D01*
X139428571Y-90880952D01*
X139523809Y-90833333D01*
X139761904Y-90833333D01*
X139857142Y-90880952D01*
X139904761Y-90928571D01*
X139952380Y-91023809D01*
X139952380Y-91309523D01*
X139904761Y-91404761D01*
X139857142Y-91452380D01*
%TO.C,J1*%
X126452380Y-100333333D02*
X127166666Y-100333333D01*
X127309523Y-100380952D01*
X127404761Y-100476190D01*
X127452380Y-100619047D01*
X127452380Y-100714285D01*
X127452380Y-99333333D02*
X127452380Y-99904761D01*
X127452380Y-99619047D02*
X126452380Y-99619047D01*
X126595238Y-99714285D01*
X126690476Y-99809523D01*
X126738095Y-99904761D01*
D11*
%TO.C,D1*%
X132311000Y-85580000D02*
X132311000Y-87420000D01*
X135135000Y-85580000D02*
X131855000Y-85580000D01*
X131855000Y-87420000D02*
X135135000Y-87420000D01*
X136315000Y-86500000D02*
X135135000Y-86500000D01*
X131855000Y-85580000D02*
X131855000Y-87420000D01*
X132551000Y-85580000D02*
X132551000Y-87420000D01*
X130675000Y-86500000D02*
X131855000Y-86500000D01*
X132431000Y-85580000D02*
X132431000Y-87420000D01*
X135135000Y-87420000D02*
X135135000Y-85580000D01*
%TO.C,J2*%
X138560000Y-91000000D02*
X128440000Y-91000000D01*
X129346000Y-95888000D02*
X129741000Y-95492000D01*
X138560000Y-98560000D02*
X138560000Y-89440000D01*
X138800000Y-89200000D02*
X138400000Y-89200000D01*
X138560000Y-89900000D02*
X128440000Y-89900000D01*
X134346000Y-95888000D02*
X134453000Y-95781000D01*
X132007000Y-93226000D02*
X132387000Y-92846000D01*
X128440000Y-98560000D02*
X128440000Y-89440000D01*
X129612000Y-96154000D02*
X129992000Y-95774000D01*
X134612000Y-96154000D02*
X134719000Y-96047000D01*
X138560000Y-98560000D02*
X128440000Y-98560000D01*
X137548000Y-93219000D02*
X137654000Y-93112000D01*
X138560000Y-89440000D02*
X128440000Y-89440000D01*
X137282000Y-92953000D02*
X137388000Y-92846000D01*
X138800000Y-89840000D02*
X138800000Y-89200000D01*
X132258000Y-93508000D02*
X132653000Y-93112000D01*
X138180000Y-94500000D02*
G75*
G03*
X138180000Y-94500000I-2180000J0D01*
G01*
X133180000Y-94500000D02*
G75*
G03*
X133180000Y-94500000I-2180000J0D01*
G01*
%TO.C,J3*%
X149560000Y-90440000D02*
X149560000Y-100560000D01*
X143953000Y-91718000D02*
X143846000Y-91612000D01*
X140440000Y-90440000D02*
X140440000Y-100560000D01*
X147154000Y-94388000D02*
X147047000Y-94281000D01*
X146888000Y-94654000D02*
X146781000Y-94547000D01*
X146888000Y-99654000D02*
X146492000Y-99259000D01*
X147154000Y-99388000D02*
X146774000Y-99008000D01*
X149560000Y-90440000D02*
X140440000Y-90440000D01*
X140900000Y-90440000D02*
X140900000Y-100560000D01*
X142000000Y-90440000D02*
X142000000Y-100560000D01*
X144508000Y-96742000D02*
X144112000Y-96347000D01*
X149560000Y-100560000D02*
X140440000Y-100560000D01*
X144219000Y-91452000D02*
X144112000Y-91346000D01*
X140840000Y-90200000D02*
X140200000Y-90200000D01*
X140200000Y-90200000D02*
X140200000Y-90600000D01*
X144226000Y-96993000D02*
X143846000Y-96613000D01*
X147680000Y-98000000D02*
G75*
G03*
X147680000Y-98000000I-2180000J0D01*
G01*
X147680000Y-93000000D02*
G75*
G03*
X147680000Y-93000000I-2180000J0D01*
G01*
%TO.C,J1*%
X123047000Y-99282000D02*
X123154000Y-99388000D01*
X122774000Y-94007000D02*
X123154000Y-94387000D01*
X125000000Y-100560000D02*
X125000000Y-90440000D01*
X126560000Y-100560000D02*
X126560000Y-90440000D01*
X126100000Y-100560000D02*
X126100000Y-90440000D01*
X117440000Y-100560000D02*
X126560000Y-100560000D01*
X126160000Y-100800000D02*
X126800000Y-100800000D01*
X120112000Y-91346000D02*
X120508000Y-91741000D01*
X117440000Y-100560000D02*
X117440000Y-90440000D01*
X126800000Y-100800000D02*
X126800000Y-100400000D01*
X120112000Y-96346000D02*
X120219000Y-96453000D01*
X122781000Y-99548000D02*
X122888000Y-99654000D01*
X122492000Y-94258000D02*
X122888000Y-94653000D01*
X119846000Y-96612000D02*
X119953000Y-96719000D01*
X117440000Y-90440000D02*
X126560000Y-90440000D01*
X119846000Y-91612000D02*
X120226000Y-91992000D01*
X123680000Y-93000000D02*
G75*
G03*
X123680000Y-93000000I-2180000J0D01*
G01*
X123680000Y-98000000D02*
G75*
G03*
X123680000Y-98000000I-2180000J0D01*
G01*
%TD*%
M02*
