%TF.GenerationSoftware,KiCad,Pcbnew,(6.0.7)*%
%TF.CreationDate,2022-10-05T08:21:56-05:00*%
%TF.ProjectId,SolenoidHandlerBoard,536f6c65-6e6f-4696-9448-616e646c6572,rev?*%
%TF.SameCoordinates,Original*%
%TF.FileFunction,Drillmap*%
%TF.FilePolarity,Positive*%
%FSLAX45Y45*%
G04 Gerber Fmt 4.5, Leading zero omitted, Abs format (unit mm)*
G04 Created by KiCad (PCBNEW (6.0.7)) date 2022-10-05 08:21:56*
%MOMM*%
%LPD*%
G01*
G04 APERTURE LIST*
%ADD10C,0.100000*%
%ADD11C,0.200000*%
%ADD12C,0.300000*%
G04 APERTURE END LIST*
D10*
X11600000Y-8400000D02*
X15100000Y-8400000D01*
X15100000Y-10100000D02*
G75*
G03*
X15200000Y-10000000I0J100000D01*
G01*
X15200000Y-8500000D02*
G75*
G03*
X15100000Y-8400000I-100000J0D01*
G01*
X11500000Y-10000000D02*
X11500000Y-8500000D01*
X11600000Y-8400000D02*
G75*
G03*
X11500000Y-8500000I0J-100000D01*
G01*
X11500000Y-10000000D02*
G75*
G03*
X11600000Y-10100000I100000J0D01*
G01*
X15100000Y-10100000D02*
X11600000Y-10100000D01*
X15200000Y-10000000D02*
X15200000Y-8500000D01*
D11*
D12*
X11700000Y-8550000D02*
X12000000Y-8850000D01*
X12000000Y-8550000D02*
X11700000Y-8850000D01*
X14700000Y-8550000D02*
X15000000Y-8850000D01*
X15000000Y-8550000D02*
X14700000Y-8850000D01*
D11*
X11752619Y-10415476D02*
X11752619Y-10215476D01*
X11800238Y-10215476D01*
X11828809Y-10225000D01*
X11847857Y-10244048D01*
X11857381Y-10263095D01*
X11866905Y-10301190D01*
X11866905Y-10329762D01*
X11857381Y-10367857D01*
X11847857Y-10386905D01*
X11828809Y-10405952D01*
X11800238Y-10415476D01*
X11752619Y-10415476D01*
X11952619Y-10415476D02*
X11952619Y-10282143D01*
X11952619Y-10320238D02*
X11962143Y-10301190D01*
X11971667Y-10291667D01*
X11990714Y-10282143D01*
X12009762Y-10282143D01*
X12076428Y-10415476D02*
X12076428Y-10282143D01*
X12076428Y-10215476D02*
X12066905Y-10225000D01*
X12076428Y-10234524D01*
X12085952Y-10225000D01*
X12076428Y-10215476D01*
X12076428Y-10234524D01*
X12200238Y-10415476D02*
X12181190Y-10405952D01*
X12171667Y-10386905D01*
X12171667Y-10215476D01*
X12305000Y-10415476D02*
X12285952Y-10405952D01*
X12276428Y-10386905D01*
X12276428Y-10215476D01*
X12533571Y-10415476D02*
X12533571Y-10215476D01*
X12600238Y-10358333D01*
X12666905Y-10215476D01*
X12666905Y-10415476D01*
X12847857Y-10415476D02*
X12847857Y-10310714D01*
X12838333Y-10291667D01*
X12819286Y-10282143D01*
X12781190Y-10282143D01*
X12762143Y-10291667D01*
X12847857Y-10405952D02*
X12828809Y-10415476D01*
X12781190Y-10415476D01*
X12762143Y-10405952D01*
X12752619Y-10386905D01*
X12752619Y-10367857D01*
X12762143Y-10348810D01*
X12781190Y-10339286D01*
X12828809Y-10339286D01*
X12847857Y-10329762D01*
X12943095Y-10282143D02*
X12943095Y-10482143D01*
X12943095Y-10291667D02*
X12962143Y-10282143D01*
X13000238Y-10282143D01*
X13019286Y-10291667D01*
X13028809Y-10301190D01*
X13038333Y-10320238D01*
X13038333Y-10377381D01*
X13028809Y-10396429D01*
X13019286Y-10405952D01*
X13000238Y-10415476D01*
X12962143Y-10415476D01*
X12943095Y-10405952D01*
X13124048Y-10396429D02*
X13133571Y-10405952D01*
X13124048Y-10415476D01*
X13114524Y-10405952D01*
X13124048Y-10396429D01*
X13124048Y-10415476D01*
X13124048Y-10291667D02*
X13133571Y-10301190D01*
X13124048Y-10310714D01*
X13114524Y-10301190D01*
X13124048Y-10291667D01*
X13124048Y-10310714D01*
X11295000Y-10645000D02*
X11495000Y-10845000D01*
X11495000Y-10645000D02*
X11295000Y-10845000D01*
X11733571Y-10635476D02*
X11857381Y-10635476D01*
X11790714Y-10711667D01*
X11819286Y-10711667D01*
X11838333Y-10721190D01*
X11847857Y-10730714D01*
X11857381Y-10749762D01*
X11857381Y-10797381D01*
X11847857Y-10816429D01*
X11838333Y-10825952D01*
X11819286Y-10835476D01*
X11762143Y-10835476D01*
X11743095Y-10825952D01*
X11733571Y-10816429D01*
X11943095Y-10816429D02*
X11952619Y-10825952D01*
X11943095Y-10835476D01*
X11933571Y-10825952D01*
X11943095Y-10816429D01*
X11943095Y-10835476D01*
X12076428Y-10635476D02*
X12095476Y-10635476D01*
X12114524Y-10645000D01*
X12124048Y-10654524D01*
X12133571Y-10673571D01*
X12143095Y-10711667D01*
X12143095Y-10759286D01*
X12133571Y-10797381D01*
X12124048Y-10816429D01*
X12114524Y-10825952D01*
X12095476Y-10835476D01*
X12076428Y-10835476D01*
X12057381Y-10825952D01*
X12047857Y-10816429D01*
X12038333Y-10797381D01*
X12028809Y-10759286D01*
X12028809Y-10711667D01*
X12038333Y-10673571D01*
X12047857Y-10654524D01*
X12057381Y-10645000D01*
X12076428Y-10635476D01*
X12266905Y-10635476D02*
X12285952Y-10635476D01*
X12305000Y-10645000D01*
X12314524Y-10654524D01*
X12324048Y-10673571D01*
X12333571Y-10711667D01*
X12333571Y-10759286D01*
X12324048Y-10797381D01*
X12314524Y-10816429D01*
X12305000Y-10825952D01*
X12285952Y-10835476D01*
X12266905Y-10835476D01*
X12247857Y-10825952D01*
X12238333Y-10816429D01*
X12228809Y-10797381D01*
X12219286Y-10759286D01*
X12219286Y-10711667D01*
X12228809Y-10673571D01*
X12238333Y-10654524D01*
X12247857Y-10645000D01*
X12266905Y-10635476D01*
X12457381Y-10635476D02*
X12476428Y-10635476D01*
X12495476Y-10645000D01*
X12505000Y-10654524D01*
X12514524Y-10673571D01*
X12524048Y-10711667D01*
X12524048Y-10759286D01*
X12514524Y-10797381D01*
X12505000Y-10816429D01*
X12495476Y-10825952D01*
X12476428Y-10835476D01*
X12457381Y-10835476D01*
X12438333Y-10825952D01*
X12428809Y-10816429D01*
X12419286Y-10797381D01*
X12409762Y-10759286D01*
X12409762Y-10711667D01*
X12419286Y-10673571D01*
X12428809Y-10654524D01*
X12438333Y-10645000D01*
X12457381Y-10635476D01*
X12609762Y-10835476D02*
X12609762Y-10702143D01*
X12609762Y-10721190D02*
X12619286Y-10711667D01*
X12638333Y-10702143D01*
X12666905Y-10702143D01*
X12685952Y-10711667D01*
X12695476Y-10730714D01*
X12695476Y-10835476D01*
X12695476Y-10730714D02*
X12705000Y-10711667D01*
X12724048Y-10702143D01*
X12752619Y-10702143D01*
X12771667Y-10711667D01*
X12781190Y-10730714D01*
X12781190Y-10835476D01*
X12876428Y-10835476D02*
X12876428Y-10702143D01*
X12876428Y-10721190D02*
X12885952Y-10711667D01*
X12905000Y-10702143D01*
X12933571Y-10702143D01*
X12952619Y-10711667D01*
X12962143Y-10730714D01*
X12962143Y-10835476D01*
X12962143Y-10730714D02*
X12971667Y-10711667D01*
X12990714Y-10702143D01*
X13019286Y-10702143D01*
X13038333Y-10711667D01*
X13047857Y-10730714D01*
X13047857Y-10835476D01*
X13438333Y-10625952D02*
X13266905Y-10883095D01*
X13695476Y-10635476D02*
X13714524Y-10635476D01*
X13733571Y-10645000D01*
X13743095Y-10654524D01*
X13752619Y-10673571D01*
X13762143Y-10711667D01*
X13762143Y-10759286D01*
X13752619Y-10797381D01*
X13743095Y-10816429D01*
X13733571Y-10825952D01*
X13714524Y-10835476D01*
X13695476Y-10835476D01*
X13676428Y-10825952D01*
X13666905Y-10816429D01*
X13657381Y-10797381D01*
X13647857Y-10759286D01*
X13647857Y-10711667D01*
X13657381Y-10673571D01*
X13666905Y-10654524D01*
X13676428Y-10645000D01*
X13695476Y-10635476D01*
X13847857Y-10816429D02*
X13857381Y-10825952D01*
X13847857Y-10835476D01*
X13838333Y-10825952D01*
X13847857Y-10816429D01*
X13847857Y-10835476D01*
X14047857Y-10835476D02*
X13933571Y-10835476D01*
X13990714Y-10835476D02*
X13990714Y-10635476D01*
X13971667Y-10664048D01*
X13952619Y-10683095D01*
X13933571Y-10692619D01*
X14238333Y-10835476D02*
X14124048Y-10835476D01*
X14181190Y-10835476D02*
X14181190Y-10635476D01*
X14162143Y-10664048D01*
X14143095Y-10683095D01*
X14124048Y-10692619D01*
X14352619Y-10721190D02*
X14333571Y-10711667D01*
X14324048Y-10702143D01*
X14314524Y-10683095D01*
X14314524Y-10673571D01*
X14324048Y-10654524D01*
X14333571Y-10645000D01*
X14352619Y-10635476D01*
X14390714Y-10635476D01*
X14409762Y-10645000D01*
X14419286Y-10654524D01*
X14428809Y-10673571D01*
X14428809Y-10683095D01*
X14419286Y-10702143D01*
X14409762Y-10711667D01*
X14390714Y-10721190D01*
X14352619Y-10721190D01*
X14333571Y-10730714D01*
X14324048Y-10740238D01*
X14314524Y-10759286D01*
X14314524Y-10797381D01*
X14324048Y-10816429D01*
X14333571Y-10825952D01*
X14352619Y-10835476D01*
X14390714Y-10835476D01*
X14409762Y-10825952D01*
X14419286Y-10816429D01*
X14428809Y-10797381D01*
X14428809Y-10759286D01*
X14419286Y-10740238D01*
X14409762Y-10730714D01*
X14390714Y-10721190D01*
X14619286Y-10835476D02*
X14505000Y-10835476D01*
X14562143Y-10835476D02*
X14562143Y-10635476D01*
X14543095Y-10664048D01*
X14524048Y-10683095D01*
X14505000Y-10692619D01*
X14695476Y-10635476D02*
X14695476Y-10673571D01*
X14771667Y-10635476D02*
X14771667Y-10673571D01*
X15066905Y-10911667D02*
X15057381Y-10902143D01*
X15038333Y-10873571D01*
X15028809Y-10854524D01*
X15019286Y-10825952D01*
X15009762Y-10778333D01*
X15009762Y-10740238D01*
X15019286Y-10692619D01*
X15028809Y-10664048D01*
X15038333Y-10645000D01*
X15057381Y-10616429D01*
X15066905Y-10606905D01*
X15133571Y-10654524D02*
X15143095Y-10645000D01*
X15162143Y-10635476D01*
X15209762Y-10635476D01*
X15228809Y-10645000D01*
X15238333Y-10654524D01*
X15247857Y-10673571D01*
X15247857Y-10692619D01*
X15238333Y-10721190D01*
X15124048Y-10835476D01*
X15247857Y-10835476D01*
X15485952Y-10835476D02*
X15485952Y-10635476D01*
X15571667Y-10835476D02*
X15571667Y-10730714D01*
X15562143Y-10711667D01*
X15543095Y-10702143D01*
X15514524Y-10702143D01*
X15495476Y-10711667D01*
X15485952Y-10721190D01*
X15695476Y-10835476D02*
X15676428Y-10825952D01*
X15666905Y-10816429D01*
X15657381Y-10797381D01*
X15657381Y-10740238D01*
X15666905Y-10721190D01*
X15676428Y-10711667D01*
X15695476Y-10702143D01*
X15724048Y-10702143D01*
X15743095Y-10711667D01*
X15752619Y-10721190D01*
X15762143Y-10740238D01*
X15762143Y-10797381D01*
X15752619Y-10816429D01*
X15743095Y-10825952D01*
X15724048Y-10835476D01*
X15695476Y-10835476D01*
X15876428Y-10835476D02*
X15857381Y-10825952D01*
X15847857Y-10806905D01*
X15847857Y-10635476D01*
X16028809Y-10825952D02*
X16009762Y-10835476D01*
X15971667Y-10835476D01*
X15952619Y-10825952D01*
X15943095Y-10806905D01*
X15943095Y-10730714D01*
X15952619Y-10711667D01*
X15971667Y-10702143D01*
X16009762Y-10702143D01*
X16028809Y-10711667D01*
X16038333Y-10730714D01*
X16038333Y-10749762D01*
X15943095Y-10768810D01*
X16114524Y-10825952D02*
X16133571Y-10835476D01*
X16171667Y-10835476D01*
X16190714Y-10825952D01*
X16200238Y-10806905D01*
X16200238Y-10797381D01*
X16190714Y-10778333D01*
X16171667Y-10768810D01*
X16143095Y-10768810D01*
X16124048Y-10759286D01*
X16114524Y-10740238D01*
X16114524Y-10730714D01*
X16124048Y-10711667D01*
X16143095Y-10702143D01*
X16171667Y-10702143D01*
X16190714Y-10711667D01*
X16266905Y-10911667D02*
X16276428Y-10902143D01*
X16295476Y-10873571D01*
X16305000Y-10854524D01*
X16314524Y-10825952D01*
X16324048Y-10778333D01*
X16324048Y-10740238D01*
X16314524Y-10692619D01*
X16305000Y-10664048D01*
X16295476Y-10645000D01*
X16276428Y-10616429D01*
X16266905Y-10606905D01*
X16628809Y-10911667D02*
X16619286Y-10902143D01*
X16600238Y-10873571D01*
X16590714Y-10854524D01*
X16581190Y-10825952D01*
X16571667Y-10778333D01*
X16571667Y-10740238D01*
X16581190Y-10692619D01*
X16590714Y-10664048D01*
X16600238Y-10645000D01*
X16619286Y-10616429D01*
X16628809Y-10606905D01*
X16705000Y-10702143D02*
X16705000Y-10835476D01*
X16705000Y-10721190D02*
X16714524Y-10711667D01*
X16733571Y-10702143D01*
X16762143Y-10702143D01*
X16781190Y-10711667D01*
X16790714Y-10730714D01*
X16790714Y-10835476D01*
X16914524Y-10835476D02*
X16895476Y-10825952D01*
X16885952Y-10816429D01*
X16876429Y-10797381D01*
X16876429Y-10740238D01*
X16885952Y-10721190D01*
X16895476Y-10711667D01*
X16914524Y-10702143D01*
X16943095Y-10702143D01*
X16962143Y-10711667D01*
X16971667Y-10721190D01*
X16981190Y-10740238D01*
X16981190Y-10797381D01*
X16971667Y-10816429D01*
X16962143Y-10825952D01*
X16943095Y-10835476D01*
X16914524Y-10835476D01*
X17038333Y-10702143D02*
X17114524Y-10702143D01*
X17066905Y-10635476D02*
X17066905Y-10806905D01*
X17076429Y-10825952D01*
X17095476Y-10835476D01*
X17114524Y-10835476D01*
X17333571Y-10702143D02*
X17333571Y-10902143D01*
X17333571Y-10711667D02*
X17352619Y-10702143D01*
X17390714Y-10702143D01*
X17409762Y-10711667D01*
X17419286Y-10721190D01*
X17428810Y-10740238D01*
X17428810Y-10797381D01*
X17419286Y-10816429D01*
X17409762Y-10825952D01*
X17390714Y-10835476D01*
X17352619Y-10835476D01*
X17333571Y-10825952D01*
X17543095Y-10835476D02*
X17524048Y-10825952D01*
X17514524Y-10806905D01*
X17514524Y-10635476D01*
X17705000Y-10835476D02*
X17705000Y-10730714D01*
X17695476Y-10711667D01*
X17676429Y-10702143D01*
X17638333Y-10702143D01*
X17619286Y-10711667D01*
X17705000Y-10825952D02*
X17685952Y-10835476D01*
X17638333Y-10835476D01*
X17619286Y-10825952D01*
X17609762Y-10806905D01*
X17609762Y-10787857D01*
X17619286Y-10768810D01*
X17638333Y-10759286D01*
X17685952Y-10759286D01*
X17705000Y-10749762D01*
X17771667Y-10702143D02*
X17847857Y-10702143D01*
X17800238Y-10635476D02*
X17800238Y-10806905D01*
X17809762Y-10825952D01*
X17828810Y-10835476D01*
X17847857Y-10835476D01*
X17990714Y-10825952D02*
X17971667Y-10835476D01*
X17933571Y-10835476D01*
X17914524Y-10825952D01*
X17905000Y-10806905D01*
X17905000Y-10730714D01*
X17914524Y-10711667D01*
X17933571Y-10702143D01*
X17971667Y-10702143D01*
X17990714Y-10711667D01*
X18000238Y-10730714D01*
X18000238Y-10749762D01*
X17905000Y-10768810D01*
X18171667Y-10835476D02*
X18171667Y-10635476D01*
X18171667Y-10825952D02*
X18152619Y-10835476D01*
X18114524Y-10835476D01*
X18095476Y-10825952D01*
X18085952Y-10816429D01*
X18076429Y-10797381D01*
X18076429Y-10740238D01*
X18085952Y-10721190D01*
X18095476Y-10711667D01*
X18114524Y-10702143D01*
X18152619Y-10702143D01*
X18171667Y-10711667D01*
X18247857Y-10911667D02*
X18257381Y-10902143D01*
X18276429Y-10873571D01*
X18285952Y-10854524D01*
X18295476Y-10825952D01*
X18305000Y-10778333D01*
X18305000Y-10740238D01*
X18295476Y-10692619D01*
X18285952Y-10664048D01*
X18276429Y-10645000D01*
X18257381Y-10616429D01*
X18247857Y-10606905D01*
M02*
