%TF.GenerationSoftware,KiCad,Pcbnew,(6.0.7)*%
%TF.CreationDate,2022-10-05T08:21:56-05:00*%
%TF.ProjectId,SolenoidHandlerBoard,536f6c65-6e6f-4696-9448-616e646c6572,rev?*%
%TF.SameCoordinates,Original*%
%TF.FileFunction,Drillmap*%
%TF.FilePolarity,Positive*%
%FSLAX45Y45*%
G04 Gerber Fmt 4.5, Leading zero omitted, Abs format (unit mm)*
G04 Created by KiCad (PCBNEW (6.0.7)) date 2022-10-05 08:21:56*
%MOMM*%
%LPD*%
G01*
G04 APERTURE LIST*
%ADD10C,0.100000*%
%ADD11C,0.200000*%
%ADD12C,0.075000*%
%ADD13C,0.130000*%
G04 APERTURE END LIST*
D10*
X11600000Y-8400000D02*
X15100000Y-8400000D01*
X15100000Y-10100000D02*
G75*
G03*
X15200000Y-10000000I0J100000D01*
G01*
X15200000Y-8500000D02*
G75*
G03*
X15100000Y-8400000I-100000J0D01*
G01*
X11500000Y-10000000D02*
X11500000Y-8500000D01*
X11600000Y-8400000D02*
G75*
G03*
X11500000Y-8500000I0J-100000D01*
G01*
X11500000Y-10000000D02*
G75*
G03*
X11600000Y-10100000I100000J0D01*
G01*
X15100000Y-10100000D02*
X11600000Y-10100000D01*
X15200000Y-10000000D02*
X15200000Y-8500000D01*
D11*
D12*
X12931000Y-8612500D02*
X13006000Y-8687500D01*
X13006000Y-8612500D02*
X12931000Y-8687500D01*
X13693000Y-8612500D02*
X13768000Y-8687500D01*
X13768000Y-8612500D02*
X13693000Y-8687500D01*
D13*
X12215000Y-9300000D02*
G75*
G03*
X12215000Y-9300000I-65000J0D01*
G01*
X12215000Y-9800000D02*
G75*
G03*
X12215000Y-9800000I-65000J0D01*
G01*
X13165000Y-9450000D02*
G75*
G03*
X13165000Y-9450000I-65000J0D01*
G01*
X13665000Y-9450000D02*
G75*
G03*
X13665000Y-9450000I-65000J0D01*
G01*
X14615000Y-9300000D02*
G75*
G03*
X14615000Y-9300000I-65000J0D01*
G01*
X14615000Y-9800000D02*
G75*
G03*
X14615000Y-9800000I-65000J0D01*
G01*
D11*
X11752619Y-10415476D02*
X11752619Y-10215476D01*
X11800238Y-10215476D01*
X11828809Y-10225000D01*
X11847857Y-10244048D01*
X11857381Y-10263095D01*
X11866905Y-10301190D01*
X11866905Y-10329762D01*
X11857381Y-10367857D01*
X11847857Y-10386905D01*
X11828809Y-10405952D01*
X11800238Y-10415476D01*
X11752619Y-10415476D01*
X11952619Y-10415476D02*
X11952619Y-10282143D01*
X11952619Y-10320238D02*
X11962143Y-10301190D01*
X11971667Y-10291667D01*
X11990714Y-10282143D01*
X12009762Y-10282143D01*
X12076428Y-10415476D02*
X12076428Y-10282143D01*
X12076428Y-10215476D02*
X12066905Y-10225000D01*
X12076428Y-10234524D01*
X12085952Y-10225000D01*
X12076428Y-10215476D01*
X12076428Y-10234524D01*
X12200238Y-10415476D02*
X12181190Y-10405952D01*
X12171667Y-10386905D01*
X12171667Y-10215476D01*
X12305000Y-10415476D02*
X12285952Y-10405952D01*
X12276428Y-10386905D01*
X12276428Y-10215476D01*
X12533571Y-10415476D02*
X12533571Y-10215476D01*
X12600238Y-10358333D01*
X12666905Y-10215476D01*
X12666905Y-10415476D01*
X12847857Y-10415476D02*
X12847857Y-10310714D01*
X12838333Y-10291667D01*
X12819286Y-10282143D01*
X12781190Y-10282143D01*
X12762143Y-10291667D01*
X12847857Y-10405952D02*
X12828809Y-10415476D01*
X12781190Y-10415476D01*
X12762143Y-10405952D01*
X12752619Y-10386905D01*
X12752619Y-10367857D01*
X12762143Y-10348810D01*
X12781190Y-10339286D01*
X12828809Y-10339286D01*
X12847857Y-10329762D01*
X12943095Y-10282143D02*
X12943095Y-10482143D01*
X12943095Y-10291667D02*
X12962143Y-10282143D01*
X13000238Y-10282143D01*
X13019286Y-10291667D01*
X13028809Y-10301190D01*
X13038333Y-10320238D01*
X13038333Y-10377381D01*
X13028809Y-10396429D01*
X13019286Y-10405952D01*
X13000238Y-10415476D01*
X12962143Y-10415476D01*
X12943095Y-10405952D01*
X13124048Y-10396429D02*
X13133571Y-10405952D01*
X13124048Y-10415476D01*
X13114524Y-10405952D01*
X13124048Y-10396429D01*
X13124048Y-10415476D01*
X13124048Y-10291667D02*
X13133571Y-10301190D01*
X13124048Y-10310714D01*
X13114524Y-10301190D01*
X13124048Y-10291667D01*
X13124048Y-10310714D01*
D12*
X11420000Y-10707500D02*
X11495000Y-10782500D01*
X11495000Y-10707500D02*
X11420000Y-10782500D01*
D11*
X11790714Y-10635476D02*
X11809762Y-10635476D01*
X11828809Y-10645000D01*
X11838333Y-10654524D01*
X11847857Y-10673571D01*
X11857381Y-10711667D01*
X11857381Y-10759286D01*
X11847857Y-10797381D01*
X11838333Y-10816429D01*
X11828809Y-10825952D01*
X11809762Y-10835476D01*
X11790714Y-10835476D01*
X11771667Y-10825952D01*
X11762143Y-10816429D01*
X11752619Y-10797381D01*
X11743095Y-10759286D01*
X11743095Y-10711667D01*
X11752619Y-10673571D01*
X11762143Y-10654524D01*
X11771667Y-10645000D01*
X11790714Y-10635476D01*
X11943095Y-10816429D02*
X11952619Y-10825952D01*
X11943095Y-10835476D01*
X11933571Y-10825952D01*
X11943095Y-10816429D01*
X11943095Y-10835476D01*
X12019286Y-10635476D02*
X12152619Y-10635476D01*
X12066905Y-10835476D01*
X12324048Y-10635476D02*
X12228809Y-10635476D01*
X12219286Y-10730714D01*
X12228809Y-10721190D01*
X12247857Y-10711667D01*
X12295476Y-10711667D01*
X12314524Y-10721190D01*
X12324048Y-10730714D01*
X12333571Y-10749762D01*
X12333571Y-10797381D01*
X12324048Y-10816429D01*
X12314524Y-10825952D01*
X12295476Y-10835476D01*
X12247857Y-10835476D01*
X12228809Y-10825952D01*
X12219286Y-10816429D01*
X12457381Y-10635476D02*
X12476428Y-10635476D01*
X12495476Y-10645000D01*
X12505000Y-10654524D01*
X12514524Y-10673571D01*
X12524048Y-10711667D01*
X12524048Y-10759286D01*
X12514524Y-10797381D01*
X12505000Y-10816429D01*
X12495476Y-10825952D01*
X12476428Y-10835476D01*
X12457381Y-10835476D01*
X12438333Y-10825952D01*
X12428809Y-10816429D01*
X12419286Y-10797381D01*
X12409762Y-10759286D01*
X12409762Y-10711667D01*
X12419286Y-10673571D01*
X12428809Y-10654524D01*
X12438333Y-10645000D01*
X12457381Y-10635476D01*
X12609762Y-10835476D02*
X12609762Y-10702143D01*
X12609762Y-10721190D02*
X12619286Y-10711667D01*
X12638333Y-10702143D01*
X12666905Y-10702143D01*
X12685952Y-10711667D01*
X12695476Y-10730714D01*
X12695476Y-10835476D01*
X12695476Y-10730714D02*
X12705000Y-10711667D01*
X12724048Y-10702143D01*
X12752619Y-10702143D01*
X12771667Y-10711667D01*
X12781190Y-10730714D01*
X12781190Y-10835476D01*
X12876428Y-10835476D02*
X12876428Y-10702143D01*
X12876428Y-10721190D02*
X12885952Y-10711667D01*
X12905000Y-10702143D01*
X12933571Y-10702143D01*
X12952619Y-10711667D01*
X12962143Y-10730714D01*
X12962143Y-10835476D01*
X12962143Y-10730714D02*
X12971667Y-10711667D01*
X12990714Y-10702143D01*
X13019286Y-10702143D01*
X13038333Y-10711667D01*
X13047857Y-10730714D01*
X13047857Y-10835476D01*
X13438333Y-10625952D02*
X13266905Y-10883095D01*
X13695476Y-10635476D02*
X13714524Y-10635476D01*
X13733571Y-10645000D01*
X13743095Y-10654524D01*
X13752619Y-10673571D01*
X13762143Y-10711667D01*
X13762143Y-10759286D01*
X13752619Y-10797381D01*
X13743095Y-10816429D01*
X13733571Y-10825952D01*
X13714524Y-10835476D01*
X13695476Y-10835476D01*
X13676428Y-10825952D01*
X13666905Y-10816429D01*
X13657381Y-10797381D01*
X13647857Y-10759286D01*
X13647857Y-10711667D01*
X13657381Y-10673571D01*
X13666905Y-10654524D01*
X13676428Y-10645000D01*
X13695476Y-10635476D01*
X13847857Y-10816429D02*
X13857381Y-10825952D01*
X13847857Y-10835476D01*
X13838333Y-10825952D01*
X13847857Y-10816429D01*
X13847857Y-10835476D01*
X13981190Y-10635476D02*
X14000238Y-10635476D01*
X14019286Y-10645000D01*
X14028809Y-10654524D01*
X14038333Y-10673571D01*
X14047857Y-10711667D01*
X14047857Y-10759286D01*
X14038333Y-10797381D01*
X14028809Y-10816429D01*
X14019286Y-10825952D01*
X14000238Y-10835476D01*
X13981190Y-10835476D01*
X13962143Y-10825952D01*
X13952619Y-10816429D01*
X13943095Y-10797381D01*
X13933571Y-10759286D01*
X13933571Y-10711667D01*
X13943095Y-10673571D01*
X13952619Y-10654524D01*
X13962143Y-10645000D01*
X13981190Y-10635476D01*
X14124048Y-10654524D02*
X14133571Y-10645000D01*
X14152619Y-10635476D01*
X14200238Y-10635476D01*
X14219286Y-10645000D01*
X14228809Y-10654524D01*
X14238333Y-10673571D01*
X14238333Y-10692619D01*
X14228809Y-10721190D01*
X14114524Y-10835476D01*
X14238333Y-10835476D01*
X14333571Y-10835476D02*
X14371667Y-10835476D01*
X14390714Y-10825952D01*
X14400238Y-10816429D01*
X14419286Y-10787857D01*
X14428809Y-10749762D01*
X14428809Y-10673571D01*
X14419286Y-10654524D01*
X14409762Y-10645000D01*
X14390714Y-10635476D01*
X14352619Y-10635476D01*
X14333571Y-10645000D01*
X14324048Y-10654524D01*
X14314524Y-10673571D01*
X14314524Y-10721190D01*
X14324048Y-10740238D01*
X14333571Y-10749762D01*
X14352619Y-10759286D01*
X14390714Y-10759286D01*
X14409762Y-10749762D01*
X14419286Y-10740238D01*
X14428809Y-10721190D01*
X14609762Y-10635476D02*
X14514524Y-10635476D01*
X14505000Y-10730714D01*
X14514524Y-10721190D01*
X14533571Y-10711667D01*
X14581190Y-10711667D01*
X14600238Y-10721190D01*
X14609762Y-10730714D01*
X14619286Y-10749762D01*
X14619286Y-10797381D01*
X14609762Y-10816429D01*
X14600238Y-10825952D01*
X14581190Y-10835476D01*
X14533571Y-10835476D01*
X14514524Y-10825952D01*
X14505000Y-10816429D01*
X14695476Y-10635476D02*
X14695476Y-10673571D01*
X14771667Y-10635476D02*
X14771667Y-10673571D01*
X15066905Y-10911667D02*
X15057381Y-10902143D01*
X15038333Y-10873571D01*
X15028809Y-10854524D01*
X15019286Y-10825952D01*
X15009762Y-10778333D01*
X15009762Y-10740238D01*
X15019286Y-10692619D01*
X15028809Y-10664048D01*
X15038333Y-10645000D01*
X15057381Y-10616429D01*
X15066905Y-10606905D01*
X15133571Y-10654524D02*
X15143095Y-10645000D01*
X15162143Y-10635476D01*
X15209762Y-10635476D01*
X15228809Y-10645000D01*
X15238333Y-10654524D01*
X15247857Y-10673571D01*
X15247857Y-10692619D01*
X15238333Y-10721190D01*
X15124048Y-10835476D01*
X15247857Y-10835476D01*
X15485952Y-10835476D02*
X15485952Y-10635476D01*
X15571667Y-10835476D02*
X15571667Y-10730714D01*
X15562143Y-10711667D01*
X15543095Y-10702143D01*
X15514524Y-10702143D01*
X15495476Y-10711667D01*
X15485952Y-10721190D01*
X15695476Y-10835476D02*
X15676428Y-10825952D01*
X15666905Y-10816429D01*
X15657381Y-10797381D01*
X15657381Y-10740238D01*
X15666905Y-10721190D01*
X15676428Y-10711667D01*
X15695476Y-10702143D01*
X15724048Y-10702143D01*
X15743095Y-10711667D01*
X15752619Y-10721190D01*
X15762143Y-10740238D01*
X15762143Y-10797381D01*
X15752619Y-10816429D01*
X15743095Y-10825952D01*
X15724048Y-10835476D01*
X15695476Y-10835476D01*
X15876428Y-10835476D02*
X15857381Y-10825952D01*
X15847857Y-10806905D01*
X15847857Y-10635476D01*
X16028809Y-10825952D02*
X16009762Y-10835476D01*
X15971667Y-10835476D01*
X15952619Y-10825952D01*
X15943095Y-10806905D01*
X15943095Y-10730714D01*
X15952619Y-10711667D01*
X15971667Y-10702143D01*
X16009762Y-10702143D01*
X16028809Y-10711667D01*
X16038333Y-10730714D01*
X16038333Y-10749762D01*
X15943095Y-10768810D01*
X16114524Y-10825952D02*
X16133571Y-10835476D01*
X16171667Y-10835476D01*
X16190714Y-10825952D01*
X16200238Y-10806905D01*
X16200238Y-10797381D01*
X16190714Y-10778333D01*
X16171667Y-10768810D01*
X16143095Y-10768810D01*
X16124048Y-10759286D01*
X16114524Y-10740238D01*
X16114524Y-10730714D01*
X16124048Y-10711667D01*
X16143095Y-10702143D01*
X16171667Y-10702143D01*
X16190714Y-10711667D01*
X16266905Y-10911667D02*
X16276428Y-10902143D01*
X16295476Y-10873571D01*
X16305000Y-10854524D01*
X16314524Y-10825952D01*
X16324048Y-10778333D01*
X16324048Y-10740238D01*
X16314524Y-10692619D01*
X16305000Y-10664048D01*
X16295476Y-10645000D01*
X16276428Y-10616429D01*
X16266905Y-10606905D01*
D13*
X11495000Y-11009000D02*
G75*
G03*
X11495000Y-11009000I-65000J0D01*
G01*
D11*
X11857381Y-11099476D02*
X11743095Y-11099476D01*
X11800238Y-11099476D02*
X11800238Y-10899476D01*
X11781190Y-10928048D01*
X11762143Y-10947095D01*
X11743095Y-10956619D01*
X11943095Y-11080429D02*
X11952619Y-11089952D01*
X11943095Y-11099476D01*
X11933571Y-11089952D01*
X11943095Y-11080429D01*
X11943095Y-11099476D01*
X12019286Y-10899476D02*
X12143095Y-10899476D01*
X12076428Y-10975667D01*
X12105000Y-10975667D01*
X12124048Y-10985190D01*
X12133571Y-10994714D01*
X12143095Y-11013762D01*
X12143095Y-11061381D01*
X12133571Y-11080429D01*
X12124048Y-11089952D01*
X12105000Y-11099476D01*
X12047857Y-11099476D01*
X12028809Y-11089952D01*
X12019286Y-11080429D01*
X12266905Y-10899476D02*
X12285952Y-10899476D01*
X12305000Y-10909000D01*
X12314524Y-10918524D01*
X12324048Y-10937571D01*
X12333571Y-10975667D01*
X12333571Y-11023286D01*
X12324048Y-11061381D01*
X12314524Y-11080429D01*
X12305000Y-11089952D01*
X12285952Y-11099476D01*
X12266905Y-11099476D01*
X12247857Y-11089952D01*
X12238333Y-11080429D01*
X12228809Y-11061381D01*
X12219286Y-11023286D01*
X12219286Y-10975667D01*
X12228809Y-10937571D01*
X12238333Y-10918524D01*
X12247857Y-10909000D01*
X12266905Y-10899476D01*
X12457381Y-10899476D02*
X12476428Y-10899476D01*
X12495476Y-10909000D01*
X12505000Y-10918524D01*
X12514524Y-10937571D01*
X12524048Y-10975667D01*
X12524048Y-11023286D01*
X12514524Y-11061381D01*
X12505000Y-11080429D01*
X12495476Y-11089952D01*
X12476428Y-11099476D01*
X12457381Y-11099476D01*
X12438333Y-11089952D01*
X12428809Y-11080429D01*
X12419286Y-11061381D01*
X12409762Y-11023286D01*
X12409762Y-10975667D01*
X12419286Y-10937571D01*
X12428809Y-10918524D01*
X12438333Y-10909000D01*
X12457381Y-10899476D01*
X12609762Y-11099476D02*
X12609762Y-10966143D01*
X12609762Y-10985190D02*
X12619286Y-10975667D01*
X12638333Y-10966143D01*
X12666905Y-10966143D01*
X12685952Y-10975667D01*
X12695476Y-10994714D01*
X12695476Y-11099476D01*
X12695476Y-10994714D02*
X12705000Y-10975667D01*
X12724048Y-10966143D01*
X12752619Y-10966143D01*
X12771667Y-10975667D01*
X12781190Y-10994714D01*
X12781190Y-11099476D01*
X12876428Y-11099476D02*
X12876428Y-10966143D01*
X12876428Y-10985190D02*
X12885952Y-10975667D01*
X12905000Y-10966143D01*
X12933571Y-10966143D01*
X12952619Y-10975667D01*
X12962143Y-10994714D01*
X12962143Y-11099476D01*
X12962143Y-10994714D02*
X12971667Y-10975667D01*
X12990714Y-10966143D01*
X13019286Y-10966143D01*
X13038333Y-10975667D01*
X13047857Y-10994714D01*
X13047857Y-11099476D01*
X13438333Y-10889952D02*
X13266905Y-11147095D01*
X13695476Y-10899476D02*
X13714524Y-10899476D01*
X13733571Y-10909000D01*
X13743095Y-10918524D01*
X13752619Y-10937571D01*
X13762143Y-10975667D01*
X13762143Y-11023286D01*
X13752619Y-11061381D01*
X13743095Y-11080429D01*
X13733571Y-11089952D01*
X13714524Y-11099476D01*
X13695476Y-11099476D01*
X13676428Y-11089952D01*
X13666905Y-11080429D01*
X13657381Y-11061381D01*
X13647857Y-11023286D01*
X13647857Y-10975667D01*
X13657381Y-10937571D01*
X13666905Y-10918524D01*
X13676428Y-10909000D01*
X13695476Y-10899476D01*
X13847857Y-11080429D02*
X13857381Y-11089952D01*
X13847857Y-11099476D01*
X13838333Y-11089952D01*
X13847857Y-11080429D01*
X13847857Y-11099476D01*
X13981190Y-10899476D02*
X14000238Y-10899476D01*
X14019286Y-10909000D01*
X14028809Y-10918524D01*
X14038333Y-10937571D01*
X14047857Y-10975667D01*
X14047857Y-11023286D01*
X14038333Y-11061381D01*
X14028809Y-11080429D01*
X14019286Y-11089952D01*
X14000238Y-11099476D01*
X13981190Y-11099476D01*
X13962143Y-11089952D01*
X13952619Y-11080429D01*
X13943095Y-11061381D01*
X13933571Y-11023286D01*
X13933571Y-10975667D01*
X13943095Y-10937571D01*
X13952619Y-10918524D01*
X13962143Y-10909000D01*
X13981190Y-10899476D01*
X14228809Y-10899476D02*
X14133571Y-10899476D01*
X14124048Y-10994714D01*
X14133571Y-10985190D01*
X14152619Y-10975667D01*
X14200238Y-10975667D01*
X14219286Y-10985190D01*
X14228809Y-10994714D01*
X14238333Y-11013762D01*
X14238333Y-11061381D01*
X14228809Y-11080429D01*
X14219286Y-11089952D01*
X14200238Y-11099476D01*
X14152619Y-11099476D01*
X14133571Y-11089952D01*
X14124048Y-11080429D01*
X14428809Y-11099476D02*
X14314524Y-11099476D01*
X14371667Y-11099476D02*
X14371667Y-10899476D01*
X14352619Y-10928048D01*
X14333571Y-10947095D01*
X14314524Y-10956619D01*
X14505000Y-10918524D02*
X14514524Y-10909000D01*
X14533571Y-10899476D01*
X14581190Y-10899476D01*
X14600238Y-10909000D01*
X14609762Y-10918524D01*
X14619286Y-10937571D01*
X14619286Y-10956619D01*
X14609762Y-10985190D01*
X14495476Y-11099476D01*
X14619286Y-11099476D01*
X14695476Y-10899476D02*
X14695476Y-10937571D01*
X14771667Y-10899476D02*
X14771667Y-10937571D01*
X15066905Y-11175667D02*
X15057381Y-11166143D01*
X15038333Y-11137571D01*
X15028809Y-11118524D01*
X15019286Y-11089952D01*
X15009762Y-11042333D01*
X15009762Y-11004238D01*
X15019286Y-10956619D01*
X15028809Y-10928048D01*
X15038333Y-10909000D01*
X15057381Y-10880429D01*
X15066905Y-10870905D01*
X15228809Y-10899476D02*
X15190714Y-10899476D01*
X15171667Y-10909000D01*
X15162143Y-10918524D01*
X15143095Y-10947095D01*
X15133571Y-10985190D01*
X15133571Y-11061381D01*
X15143095Y-11080429D01*
X15152619Y-11089952D01*
X15171667Y-11099476D01*
X15209762Y-11099476D01*
X15228809Y-11089952D01*
X15238333Y-11080429D01*
X15247857Y-11061381D01*
X15247857Y-11013762D01*
X15238333Y-10994714D01*
X15228809Y-10985190D01*
X15209762Y-10975667D01*
X15171667Y-10975667D01*
X15152619Y-10985190D01*
X15143095Y-10994714D01*
X15133571Y-11013762D01*
X15485952Y-11099476D02*
X15485952Y-10899476D01*
X15571667Y-11099476D02*
X15571667Y-10994714D01*
X15562143Y-10975667D01*
X15543095Y-10966143D01*
X15514524Y-10966143D01*
X15495476Y-10975667D01*
X15485952Y-10985190D01*
X15695476Y-11099476D02*
X15676428Y-11089952D01*
X15666905Y-11080429D01*
X15657381Y-11061381D01*
X15657381Y-11004238D01*
X15666905Y-10985190D01*
X15676428Y-10975667D01*
X15695476Y-10966143D01*
X15724048Y-10966143D01*
X15743095Y-10975667D01*
X15752619Y-10985190D01*
X15762143Y-11004238D01*
X15762143Y-11061381D01*
X15752619Y-11080429D01*
X15743095Y-11089952D01*
X15724048Y-11099476D01*
X15695476Y-11099476D01*
X15876428Y-11099476D02*
X15857381Y-11089952D01*
X15847857Y-11070905D01*
X15847857Y-10899476D01*
X16028809Y-11089952D02*
X16009762Y-11099476D01*
X15971667Y-11099476D01*
X15952619Y-11089952D01*
X15943095Y-11070905D01*
X15943095Y-10994714D01*
X15952619Y-10975667D01*
X15971667Y-10966143D01*
X16009762Y-10966143D01*
X16028809Y-10975667D01*
X16038333Y-10994714D01*
X16038333Y-11013762D01*
X15943095Y-11032810D01*
X16114524Y-11089952D02*
X16133571Y-11099476D01*
X16171667Y-11099476D01*
X16190714Y-11089952D01*
X16200238Y-11070905D01*
X16200238Y-11061381D01*
X16190714Y-11042333D01*
X16171667Y-11032810D01*
X16143095Y-11032810D01*
X16124048Y-11023286D01*
X16114524Y-11004238D01*
X16114524Y-10994714D01*
X16124048Y-10975667D01*
X16143095Y-10966143D01*
X16171667Y-10966143D01*
X16190714Y-10975667D01*
X16266905Y-11175667D02*
X16276428Y-11166143D01*
X16295476Y-11137571D01*
X16305000Y-11118524D01*
X16314524Y-11089952D01*
X16324048Y-11042333D01*
X16324048Y-11004238D01*
X16314524Y-10956619D01*
X16305000Y-10928048D01*
X16295476Y-10909000D01*
X16276428Y-10880429D01*
X16266905Y-10870905D01*
M02*
