%TF.GenerationSoftware,KiCad,Pcbnew,(6.0.7)*%
%TF.CreationDate,2022-10-05T08:21:53-05:00*%
%TF.ProjectId,SolenoidHandlerBoard,536f6c65-6e6f-4696-9448-616e646c6572,rev?*%
%TF.SameCoordinates,Original*%
%TF.FileFunction,Copper,L1,Top*%
%TF.FilePolarity,Positive*%
%FSLAX46Y46*%
G04 Gerber Fmt 4.6, Leading zero omitted, Abs format (unit mm)*
G04 Created by KiCad (PCBNEW (6.0.7)) date 2022-10-05 08:21:53*
%MOMM*%
%LPD*%
G01*
G04 APERTURE LIST*
%TA.AperFunction,ComponentPad*%
%ADD10R,1.500000X1.500000*%
%TD*%
%TA.AperFunction,ComponentPad*%
%ADD11O,1.500000X1.500000*%
%TD*%
%TA.AperFunction,ComponentPad*%
%ADD12R,2.600000X2.600000*%
%TD*%
%TA.AperFunction,ComponentPad*%
%ADD13C,2.600000*%
%TD*%
%TA.AperFunction,Conductor*%
%ADD14C,2.000000*%
%TD*%
G04 APERTURE END LIST*
D10*
%TO.P,D1,1,K*%
%TO.N,Net-(D1-Pad1)*%
X129685000Y-86500000D03*
D11*
%TO.P,D1,2,A*%
%TO.N,GND*%
X137305000Y-86500000D03*
%TD*%
D12*
%TO.P,J2,1,Pin_1*%
%TO.N,+12V*%
X136000000Y-94500000D03*
D13*
%TO.P,J2,2,Pin_2*%
%TO.N,Net-(D1-Pad1)*%
X131000000Y-94500000D03*
%TD*%
D12*
%TO.P,J3,1,Pin_1*%
%TO.N,GND*%
X145500000Y-93000000D03*
D13*
%TO.P,J3,2,Pin_2*%
%TO.N,+12V*%
X145500000Y-98000000D03*
%TD*%
D12*
%TO.P,J1,1,Pin_1*%
%TO.N,Net-(D1-Pad1)*%
X121500000Y-98000000D03*
D13*
%TO.P,J1,2,Pin_2*%
%TO.N,GND*%
X121500000Y-93000000D03*
%TD*%
D14*
%TO.N,Net-(D1-Pad1)*%
X131000000Y-87815000D02*
X129685000Y-86500000D01*
X131000000Y-94500000D02*
X131000000Y-87815000D01*
X125000000Y-94500000D02*
X121500000Y-98000000D01*
X131000000Y-94500000D02*
X125000000Y-94500000D01*
%TD*%
%TA.AperFunction,Conductor*%
%TO.N,+12V*%
G36*
X150970018Y-84510000D02*
G01*
X150984852Y-84512310D01*
X150984855Y-84512310D01*
X150993724Y-84513691D01*
X151002626Y-84512527D01*
X151002750Y-84512511D01*
X151033192Y-84512240D01*
X151040621Y-84513077D01*
X151095264Y-84519234D01*
X151122771Y-84525513D01*
X151199853Y-84552485D01*
X151225274Y-84564727D01*
X151294426Y-84608178D01*
X151316485Y-84625770D01*
X151374230Y-84683515D01*
X151391822Y-84705574D01*
X151435273Y-84774726D01*
X151447515Y-84800147D01*
X151474487Y-84877228D01*
X151480766Y-84904736D01*
X151487018Y-84960226D01*
X151486923Y-84975868D01*
X151487800Y-84975879D01*
X151487690Y-84984851D01*
X151486309Y-84993724D01*
X151487473Y-85002626D01*
X151487473Y-85002628D01*
X151490436Y-85025283D01*
X151491500Y-85041621D01*
X151491500Y-99950633D01*
X151490000Y-99970018D01*
X151486309Y-99993724D01*
X151487473Y-100002626D01*
X151487489Y-100002750D01*
X151487760Y-100033192D01*
X151485430Y-100053870D01*
X151480766Y-100095264D01*
X151474487Y-100122771D01*
X151447515Y-100199853D01*
X151435273Y-100225274D01*
X151391822Y-100294426D01*
X151374230Y-100316485D01*
X151316485Y-100374230D01*
X151294426Y-100391822D01*
X151225274Y-100435273D01*
X151199853Y-100447515D01*
X151122772Y-100474487D01*
X151095264Y-100480766D01*
X151039774Y-100487018D01*
X151024132Y-100486923D01*
X151024121Y-100487800D01*
X151015149Y-100487690D01*
X151006276Y-100486309D01*
X150997374Y-100487473D01*
X150997372Y-100487473D01*
X150986385Y-100488910D01*
X150974714Y-100490436D01*
X150958379Y-100491500D01*
X116049367Y-100491500D01*
X116029982Y-100490000D01*
X116015148Y-100487690D01*
X116015145Y-100487690D01*
X116006276Y-100486309D01*
X115997374Y-100487473D01*
X115997250Y-100487489D01*
X115966808Y-100487760D01*
X115946130Y-100485430D01*
X115904736Y-100480766D01*
X115877229Y-100474487D01*
X115800147Y-100447515D01*
X115774726Y-100435273D01*
X115705574Y-100391822D01*
X115683515Y-100374230D01*
X115625770Y-100316485D01*
X115608178Y-100294426D01*
X115564727Y-100225274D01*
X115552485Y-100199853D01*
X115525513Y-100122772D01*
X115519234Y-100095266D01*
X115513170Y-100041451D01*
X115512888Y-100016640D01*
X115513576Y-100012552D01*
X115513729Y-100000000D01*
X115509773Y-99972376D01*
X115508500Y-99954514D01*
X115508500Y-92952526D01*
X119687050Y-92952526D01*
X119687274Y-92957192D01*
X119687274Y-92957197D01*
X119693148Y-93079467D01*
X119699947Y-93221019D01*
X119752388Y-93484656D01*
X119843220Y-93737646D01*
X119970450Y-93974431D01*
X119973241Y-93978168D01*
X119973245Y-93978175D01*
X120057820Y-94091434D01*
X120131281Y-94189810D01*
X120134590Y-94193090D01*
X120134595Y-94193096D01*
X120318863Y-94375762D01*
X120322180Y-94379050D01*
X120325942Y-94381808D01*
X120325945Y-94381811D01*
X120485831Y-94499044D01*
X120538954Y-94537995D01*
X120543089Y-94540171D01*
X120543093Y-94540173D01*
X120772698Y-94660975D01*
X120776840Y-94663154D01*
X121030613Y-94751775D01*
X121035206Y-94752647D01*
X121290109Y-94801042D01*
X121290112Y-94801042D01*
X121294698Y-94801913D01*
X121422370Y-94806929D01*
X121558625Y-94812283D01*
X121558630Y-94812283D01*
X121563293Y-94812466D01*
X121667607Y-94801042D01*
X121825844Y-94783713D01*
X121825850Y-94783712D01*
X121830497Y-94783203D01*
X121872612Y-94772115D01*
X122085918Y-94715956D01*
X122085920Y-94715955D01*
X122090441Y-94714765D01*
X122094738Y-94712919D01*
X122333120Y-94610502D01*
X122333122Y-94610501D01*
X122337414Y-94608657D01*
X122457956Y-94534064D01*
X122518301Y-94496721D01*
X122586753Y-94477883D01*
X122654523Y-94499044D01*
X122700094Y-94553485D01*
X122708997Y-94623921D01*
X122673699Y-94692960D01*
X121212064Y-96154595D01*
X121149752Y-96188621D01*
X121122969Y-96191500D01*
X120151866Y-96191500D01*
X120089684Y-96198255D01*
X119953295Y-96249385D01*
X119836739Y-96336739D01*
X119749385Y-96453295D01*
X119698255Y-96589684D01*
X119691500Y-96651866D01*
X119691500Y-99348134D01*
X119698255Y-99410316D01*
X119749385Y-99546705D01*
X119836739Y-99663261D01*
X119953295Y-99750615D01*
X120089684Y-99801745D01*
X120151866Y-99808500D01*
X122848134Y-99808500D01*
X122910316Y-99801745D01*
X123046705Y-99750615D01*
X123163261Y-99663261D01*
X123250615Y-99546705D01*
X123288778Y-99444906D01*
X144419839Y-99444906D01*
X144428553Y-99456427D01*
X144535452Y-99534809D01*
X144543351Y-99539745D01*
X144772905Y-99660519D01*
X144781454Y-99664236D01*
X145026327Y-99749749D01*
X145035336Y-99752163D01*
X145290166Y-99800544D01*
X145299423Y-99801598D01*
X145558607Y-99811783D01*
X145567921Y-99811457D01*
X145825753Y-99783220D01*
X145834930Y-99781519D01*
X146085758Y-99715481D01*
X146094574Y-99712445D01*
X146332880Y-99610062D01*
X146341167Y-99605748D01*
X146561718Y-99469266D01*
X146569268Y-99463780D01*
X146574559Y-99459301D01*
X146582997Y-99446497D01*
X146576935Y-99436145D01*
X145512812Y-98372022D01*
X145498868Y-98364408D01*
X145497035Y-98364539D01*
X145490420Y-98368790D01*
X144426497Y-99432713D01*
X144419839Y-99444906D01*
X123288778Y-99444906D01*
X123301745Y-99410316D01*
X123308500Y-99348134D01*
X123308500Y-98377031D01*
X123328502Y-98308910D01*
X123345405Y-98287936D01*
X123676130Y-97957211D01*
X143687775Y-97957211D01*
X143700220Y-98216288D01*
X143701356Y-98225543D01*
X143751961Y-98479945D01*
X143754449Y-98488917D01*
X143842095Y-98733033D01*
X143845895Y-98741568D01*
X143968658Y-98970042D01*
X143973666Y-98977904D01*
X144043720Y-99071716D01*
X144054979Y-99080165D01*
X144067397Y-99073393D01*
X145127978Y-98012812D01*
X145134356Y-98001132D01*
X145864408Y-98001132D01*
X145864539Y-98002965D01*
X145868790Y-98009580D01*
X146936094Y-99076884D01*
X146948474Y-99083644D01*
X146956815Y-99077400D01*
X147090832Y-98869048D01*
X147095275Y-98860864D01*
X147201807Y-98624370D01*
X147204997Y-98615605D01*
X147275402Y-98365972D01*
X147277262Y-98356830D01*
X147310187Y-98098019D01*
X147310668Y-98091733D01*
X147312987Y-98003160D01*
X147312836Y-97996851D01*
X147293501Y-97736663D01*
X147292125Y-97727457D01*
X147234878Y-97474467D01*
X147232154Y-97465556D01*
X147138143Y-97223806D01*
X147134132Y-97215397D01*
X147005422Y-96990202D01*
X147000211Y-96982476D01*
X146956996Y-96927658D01*
X146945071Y-96919187D01*
X146933537Y-96925673D01*
X145872022Y-97987188D01*
X145864408Y-98001132D01*
X145134356Y-98001132D01*
X145135592Y-97998868D01*
X145135461Y-97997035D01*
X145131210Y-97990420D01*
X144065816Y-96925026D01*
X144052507Y-96917758D01*
X144042472Y-96924878D01*
X144026937Y-96943556D01*
X144021531Y-96951135D01*
X143886965Y-97172891D01*
X143882736Y-97181192D01*
X143782432Y-97420389D01*
X143779471Y-97429239D01*
X143715628Y-97680625D01*
X143714006Y-97689822D01*
X143688020Y-97947885D01*
X143687775Y-97957211D01*
X123676130Y-97957211D01*
X125080652Y-96552689D01*
X144417102Y-96552689D01*
X144421675Y-96562465D01*
X145487188Y-97627978D01*
X145501132Y-97635592D01*
X145502965Y-97635461D01*
X145509580Y-97631210D01*
X146574349Y-96566441D01*
X146580733Y-96554751D01*
X146571321Y-96542641D01*
X146424045Y-96440471D01*
X146416010Y-96435738D01*
X146183376Y-96321016D01*
X146174743Y-96317528D01*
X145927703Y-96238450D01*
X145918643Y-96236274D01*
X145662630Y-96194580D01*
X145653343Y-96193768D01*
X145393992Y-96190373D01*
X145384681Y-96190943D01*
X145127682Y-96225919D01*
X145118546Y-96227860D01*
X144869543Y-96300439D01*
X144860800Y-96303707D01*
X144625252Y-96412296D01*
X144617097Y-96416816D01*
X144426240Y-96541947D01*
X144417102Y-96552689D01*
X125080652Y-96552689D01*
X125587936Y-96045405D01*
X125650248Y-96011379D01*
X125677031Y-96008500D01*
X129957484Y-96008500D01*
X130025605Y-96028502D01*
X130031988Y-96032887D01*
X130038954Y-96037995D01*
X130043089Y-96040171D01*
X130043093Y-96040173D01*
X130260572Y-96154595D01*
X130276840Y-96163154D01*
X130385298Y-96201029D01*
X130486225Y-96236274D01*
X130530613Y-96251775D01*
X130535206Y-96252647D01*
X130790109Y-96301042D01*
X130790112Y-96301042D01*
X130794698Y-96301913D01*
X130922370Y-96306929D01*
X131058625Y-96312283D01*
X131058630Y-96312283D01*
X131063293Y-96312466D01*
X131167607Y-96301042D01*
X131325844Y-96283713D01*
X131325850Y-96283712D01*
X131330497Y-96283203D01*
X131443985Y-96253324D01*
X131585918Y-96215956D01*
X131585920Y-96215955D01*
X131590441Y-96214765D01*
X131594738Y-96212919D01*
X131833120Y-96110502D01*
X131833122Y-96110501D01*
X131837414Y-96108657D01*
X131956071Y-96035230D01*
X132062017Y-95969669D01*
X132062021Y-95969666D01*
X132065990Y-95967210D01*
X132210741Y-95844669D01*
X134192001Y-95844669D01*
X134192371Y-95851490D01*
X134197895Y-95902352D01*
X134201521Y-95917604D01*
X134246676Y-96038054D01*
X134255214Y-96053649D01*
X134331715Y-96155724D01*
X134344276Y-96168285D01*
X134446351Y-96244786D01*
X134461946Y-96253324D01*
X134582394Y-96298478D01*
X134597649Y-96302105D01*
X134648514Y-96307631D01*
X134655328Y-96308000D01*
X135727885Y-96308000D01*
X135743124Y-96303525D01*
X135744329Y-96302135D01*
X135746000Y-96294452D01*
X135746000Y-96289884D01*
X136254000Y-96289884D01*
X136258475Y-96305123D01*
X136259865Y-96306328D01*
X136267548Y-96307999D01*
X137344669Y-96307999D01*
X137351490Y-96307629D01*
X137402352Y-96302105D01*
X137417604Y-96298479D01*
X137538054Y-96253324D01*
X137553649Y-96244786D01*
X137655724Y-96168285D01*
X137668285Y-96155724D01*
X137744786Y-96053649D01*
X137753324Y-96038054D01*
X137798478Y-95917606D01*
X137802105Y-95902351D01*
X137807631Y-95851486D01*
X137808000Y-95844672D01*
X137808000Y-94772115D01*
X137803525Y-94756876D01*
X137802135Y-94755671D01*
X137794452Y-94754000D01*
X136272115Y-94754000D01*
X136256876Y-94758475D01*
X136255671Y-94759865D01*
X136254000Y-94767548D01*
X136254000Y-96289884D01*
X135746000Y-96289884D01*
X135746000Y-94772115D01*
X135741525Y-94756876D01*
X135740135Y-94755671D01*
X135732452Y-94754000D01*
X134210116Y-94754000D01*
X134194877Y-94758475D01*
X134193672Y-94759865D01*
X134192001Y-94767548D01*
X134192001Y-95844669D01*
X132210741Y-95844669D01*
X132271149Y-95793530D01*
X132448382Y-95591434D01*
X132593797Y-95365361D01*
X132704199Y-95120278D01*
X132777163Y-94861568D01*
X132791963Y-94745229D01*
X132810688Y-94598045D01*
X132810688Y-94598041D01*
X132811086Y-94594915D01*
X132813571Y-94500000D01*
X132802285Y-94348134D01*
X143691500Y-94348134D01*
X143698255Y-94410316D01*
X143749385Y-94546705D01*
X143836739Y-94663261D01*
X143953295Y-94750615D01*
X144089684Y-94801745D01*
X144151866Y-94808500D01*
X146848134Y-94808500D01*
X146910316Y-94801745D01*
X147046705Y-94750615D01*
X147163261Y-94663261D01*
X147250615Y-94546705D01*
X147301745Y-94410316D01*
X147308500Y-94348134D01*
X147308500Y-91651866D01*
X147301745Y-91589684D01*
X147250615Y-91453295D01*
X147163261Y-91336739D01*
X147046705Y-91249385D01*
X146910316Y-91198255D01*
X146848134Y-91191500D01*
X144151866Y-91191500D01*
X144089684Y-91198255D01*
X143953295Y-91249385D01*
X143836739Y-91336739D01*
X143749385Y-91453295D01*
X143698255Y-91589684D01*
X143691500Y-91651866D01*
X143691500Y-94348134D01*
X132802285Y-94348134D01*
X132793650Y-94231937D01*
X132792733Y-94227885D01*
X134192000Y-94227885D01*
X134196475Y-94243124D01*
X134197865Y-94244329D01*
X134205548Y-94246000D01*
X135727885Y-94246000D01*
X135743124Y-94241525D01*
X135744329Y-94240135D01*
X135746000Y-94232452D01*
X135746000Y-94227885D01*
X136254000Y-94227885D01*
X136258475Y-94243124D01*
X136259865Y-94244329D01*
X136267548Y-94246000D01*
X137789884Y-94246000D01*
X137805123Y-94241525D01*
X137806328Y-94240135D01*
X137807999Y-94232452D01*
X137807999Y-93155331D01*
X137807629Y-93148510D01*
X137802105Y-93097648D01*
X137798479Y-93082396D01*
X137753324Y-92961946D01*
X137744786Y-92946351D01*
X137668285Y-92844276D01*
X137655724Y-92831715D01*
X137553649Y-92755214D01*
X137538054Y-92746676D01*
X137417606Y-92701522D01*
X137402351Y-92697895D01*
X137351486Y-92692369D01*
X137344672Y-92692000D01*
X136272115Y-92692000D01*
X136256876Y-92696475D01*
X136255671Y-92697865D01*
X136254000Y-92705548D01*
X136254000Y-94227885D01*
X135746000Y-94227885D01*
X135746000Y-92710116D01*
X135741525Y-92694877D01*
X135740135Y-92693672D01*
X135732452Y-92692001D01*
X134655331Y-92692001D01*
X134648510Y-92692371D01*
X134597648Y-92697895D01*
X134582396Y-92701521D01*
X134461946Y-92746676D01*
X134446351Y-92755214D01*
X134344276Y-92831715D01*
X134331715Y-92844276D01*
X134255214Y-92946351D01*
X134246676Y-92961946D01*
X134201522Y-93082394D01*
X134197895Y-93097649D01*
X134192369Y-93148514D01*
X134192000Y-93155328D01*
X134192000Y-94227885D01*
X132792733Y-94227885D01*
X132787834Y-94206233D01*
X132735361Y-93974331D01*
X132735360Y-93974326D01*
X132734327Y-93969763D01*
X132636902Y-93719238D01*
X132525107Y-93523637D01*
X132508500Y-93461114D01*
X132508500Y-87839016D01*
X132508549Y-87835498D01*
X132511193Y-87740850D01*
X132511193Y-87740847D01*
X132511334Y-87735795D01*
X132500941Y-87657902D01*
X132500241Y-87651353D01*
X132494346Y-87578077D01*
X132494345Y-87578073D01*
X132493940Y-87573035D01*
X132486101Y-87541122D01*
X132483573Y-87527738D01*
X132479898Y-87500194D01*
X132479229Y-87495180D01*
X132476786Y-87487087D01*
X132456522Y-87419971D01*
X132454781Y-87413608D01*
X132443509Y-87367714D01*
X132436037Y-87337294D01*
X132423199Y-87307048D01*
X132418561Y-87294237D01*
X132410530Y-87267638D01*
X132409067Y-87262792D01*
X132406849Y-87258244D01*
X132406846Y-87258237D01*
X132374629Y-87192182D01*
X132371893Y-87186180D01*
X132348747Y-87131653D01*
X132341188Y-87113844D01*
X132323681Y-87086044D01*
X132317052Y-87074134D01*
X132308579Y-87056761D01*
X132302654Y-87044612D01*
X132257357Y-86980400D01*
X132253699Y-86974914D01*
X132214529Y-86912714D01*
X132214528Y-86912713D01*
X132211833Y-86908433D01*
X132208492Y-86904644D01*
X132208488Y-86904638D01*
X132190102Y-86883783D01*
X132181656Y-86873088D01*
X132165009Y-86849490D01*
X132162726Y-86846253D01*
X132143091Y-86824750D01*
X132103375Y-86785034D01*
X132097956Y-86779264D01*
X132054650Y-86730142D01*
X132054647Y-86730139D01*
X132051302Y-86726345D01*
X132019011Y-86699821D01*
X132009892Y-86691551D01*
X131818341Y-86500000D01*
X136041693Y-86500000D01*
X136060885Y-86719371D01*
X136117880Y-86932076D01*
X136140415Y-86980403D01*
X136208618Y-87126666D01*
X136208621Y-87126671D01*
X136210944Y-87131653D01*
X136214100Y-87136160D01*
X136214101Y-87136162D01*
X136333758Y-87307049D01*
X136337251Y-87312038D01*
X136492962Y-87467749D01*
X136497471Y-87470906D01*
X136497473Y-87470908D01*
X136520579Y-87487087D01*
X136673346Y-87594056D01*
X136872924Y-87687120D01*
X137085629Y-87744115D01*
X137305000Y-87763307D01*
X137524371Y-87744115D01*
X137737076Y-87687120D01*
X137936654Y-87594056D01*
X138089421Y-87487087D01*
X138112527Y-87470908D01*
X138112529Y-87470906D01*
X138117038Y-87467749D01*
X138272749Y-87312038D01*
X138276243Y-87307049D01*
X138395899Y-87136162D01*
X138395900Y-87136160D01*
X138399056Y-87131653D01*
X138401379Y-87126671D01*
X138401382Y-87126666D01*
X138469585Y-86980403D01*
X138492120Y-86932076D01*
X138492748Y-86929733D01*
X146487822Y-86929733D01*
X146487975Y-86934121D01*
X146487975Y-86934127D01*
X146496987Y-87192182D01*
X146497625Y-87210458D01*
X146498387Y-87214781D01*
X146498388Y-87214788D01*
X146522164Y-87349624D01*
X146546402Y-87487087D01*
X146633203Y-87754235D01*
X146635131Y-87758188D01*
X146635133Y-87758193D01*
X146672838Y-87835498D01*
X146756340Y-88006702D01*
X146758795Y-88010341D01*
X146758798Y-88010347D01*
X146831890Y-88118710D01*
X146913415Y-88239576D01*
X147101371Y-88448322D01*
X147104733Y-88451143D01*
X147104734Y-88451144D01*
X147153461Y-88492031D01*
X147316550Y-88628879D01*
X147554764Y-88777731D01*
X147811375Y-88891982D01*
X148081390Y-88969407D01*
X148085740Y-88970018D01*
X148085743Y-88970019D01*
X148188690Y-88984487D01*
X148359552Y-89008500D01*
X148570146Y-89008500D01*
X148572332Y-89008347D01*
X148572336Y-89008347D01*
X148775827Y-88994118D01*
X148775832Y-88994117D01*
X148780212Y-88993811D01*
X149054970Y-88935409D01*
X149059099Y-88933906D01*
X149059103Y-88933905D01*
X149314781Y-88840846D01*
X149314785Y-88840844D01*
X149318926Y-88839337D01*
X149566942Y-88707464D01*
X149671896Y-88631211D01*
X149790629Y-88544947D01*
X149790632Y-88544944D01*
X149794192Y-88542358D01*
X149996252Y-88347231D01*
X150169188Y-88125882D01*
X150171384Y-88122078D01*
X150171389Y-88122071D01*
X150307435Y-87886431D01*
X150309636Y-87882619D01*
X150414862Y-87622176D01*
X150418875Y-87606081D01*
X150481753Y-87353893D01*
X150481754Y-87353888D01*
X150482817Y-87349624D01*
X150483597Y-87342209D01*
X150511719Y-87074636D01*
X150511719Y-87074633D01*
X150512178Y-87070267D01*
X150512025Y-87065873D01*
X150502529Y-86793939D01*
X150502528Y-86793933D01*
X150502375Y-86789542D01*
X150501581Y-86785034D01*
X150454360Y-86517236D01*
X150453598Y-86512913D01*
X150366797Y-86245765D01*
X150243660Y-85993298D01*
X150241205Y-85989659D01*
X150241202Y-85989653D01*
X150163272Y-85874118D01*
X150086585Y-85760424D01*
X149898629Y-85551678D01*
X149683450Y-85371121D01*
X149445236Y-85222269D01*
X149188625Y-85108018D01*
X148960913Y-85042723D01*
X148922837Y-85031805D01*
X148922836Y-85031805D01*
X148918610Y-85030593D01*
X148914260Y-85029982D01*
X148914257Y-85029981D01*
X148790241Y-85012552D01*
X148640448Y-84991500D01*
X148429854Y-84991500D01*
X148427668Y-84991653D01*
X148427664Y-84991653D01*
X148224173Y-85005882D01*
X148224168Y-85005883D01*
X148219788Y-85006189D01*
X147945030Y-85064591D01*
X147940901Y-85066094D01*
X147940897Y-85066095D01*
X147685219Y-85159154D01*
X147685215Y-85159156D01*
X147681074Y-85160663D01*
X147433058Y-85292536D01*
X147429499Y-85295122D01*
X147429497Y-85295123D01*
X147276965Y-85405944D01*
X147205808Y-85457642D01*
X147003748Y-85652769D01*
X146919639Y-85760424D01*
X146838844Y-85863838D01*
X146830812Y-85874118D01*
X146828616Y-85877922D01*
X146828611Y-85877929D01*
X146721796Y-86062939D01*
X146690364Y-86117381D01*
X146585138Y-86377824D01*
X146584073Y-86382097D01*
X146584072Y-86382099D01*
X146533678Y-86584220D01*
X146517183Y-86650376D01*
X146516724Y-86654744D01*
X146516723Y-86654749D01*
X146489611Y-86912714D01*
X146487822Y-86929733D01*
X138492748Y-86929733D01*
X138549115Y-86719371D01*
X138568307Y-86500000D01*
X138549115Y-86280629D01*
X138492120Y-86067924D01*
X138448585Y-85974562D01*
X138401382Y-85873334D01*
X138401379Y-85873329D01*
X138399056Y-85868347D01*
X138326044Y-85764075D01*
X138275908Y-85692473D01*
X138275906Y-85692470D01*
X138272749Y-85687962D01*
X138117038Y-85532251D01*
X137936654Y-85405944D01*
X137737076Y-85312880D01*
X137524371Y-85255885D01*
X137305000Y-85236693D01*
X137085629Y-85255885D01*
X136872924Y-85312880D01*
X136779562Y-85356415D01*
X136678334Y-85403618D01*
X136678329Y-85403621D01*
X136673347Y-85405944D01*
X136668840Y-85409100D01*
X136668838Y-85409101D01*
X136497473Y-85529092D01*
X136497470Y-85529094D01*
X136492962Y-85532251D01*
X136337251Y-85687962D01*
X136334094Y-85692470D01*
X136334092Y-85692473D01*
X136283956Y-85764075D01*
X136210944Y-85868347D01*
X136208621Y-85873329D01*
X136208618Y-85873334D01*
X136161415Y-85974562D01*
X136117880Y-86067924D01*
X136060885Y-86280629D01*
X136041693Y-86500000D01*
X131818341Y-86500000D01*
X130943287Y-85624946D01*
X130914400Y-85580080D01*
X130885615Y-85503295D01*
X130880235Y-85496116D01*
X130880233Y-85496113D01*
X130803642Y-85393919D01*
X130798261Y-85386739D01*
X130681705Y-85299385D01*
X130545316Y-85248255D01*
X130540289Y-85247709D01*
X130506282Y-85233771D01*
X130407633Y-85174027D01*
X130362642Y-85146779D01*
X130137571Y-85055845D01*
X130079814Y-85042723D01*
X129905787Y-85003185D01*
X129905784Y-85003184D01*
X129900856Y-85002065D01*
X129895809Y-85001747D01*
X129895806Y-85001747D01*
X129675350Y-84987877D01*
X129658587Y-84986822D01*
X129474639Y-85004859D01*
X129422025Y-85010018D01*
X129422024Y-85010018D01*
X129416998Y-85010511D01*
X129182304Y-85072519D01*
X129177687Y-85074575D01*
X129177686Y-85074575D01*
X128965170Y-85169194D01*
X128965167Y-85169196D01*
X128960544Y-85171254D01*
X128885314Y-85220484D01*
X128869247Y-85230998D01*
X128830657Y-85247606D01*
X128824684Y-85248255D01*
X128817291Y-85251027D01*
X128817289Y-85251027D01*
X128800535Y-85257308D01*
X128688295Y-85299385D01*
X128571739Y-85386739D01*
X128484385Y-85503295D01*
X128481233Y-85511703D01*
X128455600Y-85580080D01*
X128433255Y-85639684D01*
X128433241Y-85639813D01*
X128423205Y-85665572D01*
X128312398Y-85863838D01*
X128308955Y-85869998D01*
X128267443Y-85984051D01*
X128238730Y-86062939D01*
X128225930Y-86098105D01*
X128224982Y-86103074D01*
X128224981Y-86103078D01*
X128192125Y-86275319D01*
X128180444Y-86336553D01*
X128179291Y-86377824D01*
X128175726Y-86505475D01*
X128173666Y-86579205D01*
X128205771Y-86819820D01*
X128207233Y-86824661D01*
X128207233Y-86824663D01*
X128273640Y-87044612D01*
X128275933Y-87052208D01*
X128382346Y-87270388D01*
X128385265Y-87274526D01*
X128414412Y-87315845D01*
X128432866Y-87356737D01*
X128433255Y-87360316D01*
X128436027Y-87367711D01*
X128436028Y-87367714D01*
X128472069Y-87463852D01*
X128484385Y-87496705D01*
X128571739Y-87613261D01*
X128578919Y-87618642D01*
X128681113Y-87695233D01*
X128681116Y-87695235D01*
X128688295Y-87700615D01*
X128765081Y-87729401D01*
X128809946Y-87758287D01*
X129454595Y-88402936D01*
X129488621Y-88465248D01*
X129491500Y-88492031D01*
X129491500Y-92865500D01*
X129471498Y-92933621D01*
X129417842Y-92980114D01*
X129365500Y-92991500D01*
X125024002Y-92991500D01*
X125020483Y-92991451D01*
X124925850Y-92988807D01*
X124925847Y-92988807D01*
X124920795Y-92988666D01*
X124842902Y-92999059D01*
X124836361Y-92999758D01*
X124807668Y-93002067D01*
X124763077Y-93005654D01*
X124763073Y-93005655D01*
X124758035Y-93006060D01*
X124726122Y-93013899D01*
X124712742Y-93016426D01*
X124680180Y-93020771D01*
X124675339Y-93022232D01*
X124675337Y-93022233D01*
X124604971Y-93043478D01*
X124598610Y-93045219D01*
X124522294Y-93063963D01*
X124517634Y-93065941D01*
X124492049Y-93076801D01*
X124479239Y-93081438D01*
X124447792Y-93090933D01*
X124443244Y-93093151D01*
X124443237Y-93093154D01*
X124377182Y-93125371D01*
X124371180Y-93128107D01*
X124326496Y-93147075D01*
X124298844Y-93158812D01*
X124274532Y-93174123D01*
X124271044Y-93176319D01*
X124259140Y-93182945D01*
X124229612Y-93197346D01*
X124225475Y-93200265D01*
X124225474Y-93200265D01*
X124165403Y-93242641D01*
X124159914Y-93246301D01*
X124097714Y-93285471D01*
X124093433Y-93288167D01*
X124089644Y-93291508D01*
X124089638Y-93291512D01*
X124068783Y-93309898D01*
X124058088Y-93318344D01*
X124031253Y-93337274D01*
X124009750Y-93356909D01*
X123970034Y-93396625D01*
X123964264Y-93402044D01*
X123915142Y-93445350D01*
X123915139Y-93445353D01*
X123911345Y-93448698D01*
X123908135Y-93452606D01*
X123908134Y-93452607D01*
X123884821Y-93480989D01*
X123876551Y-93490108D01*
X123189387Y-94177272D01*
X123127075Y-94211298D01*
X123056260Y-94206233D01*
X122999424Y-94163686D01*
X122974613Y-94097166D01*
X122989704Y-94027792D01*
X122994321Y-94020014D01*
X123091269Y-93869291D01*
X123093797Y-93865361D01*
X123204199Y-93620278D01*
X123242142Y-93485743D01*
X123275893Y-93366072D01*
X123275894Y-93366069D01*
X123277163Y-93361568D01*
X123295043Y-93221019D01*
X123310688Y-93098045D01*
X123310688Y-93098041D01*
X123311086Y-93094915D01*
X123311191Y-93090933D01*
X123313141Y-93016427D01*
X123313571Y-93000000D01*
X123293650Y-92731937D01*
X123292619Y-92727379D01*
X123235361Y-92474331D01*
X123235360Y-92474326D01*
X123234327Y-92469763D01*
X123136902Y-92219238D01*
X123003518Y-91985864D01*
X122837105Y-91774769D01*
X122641317Y-91590591D01*
X122443407Y-91453295D01*
X122424299Y-91440039D01*
X122424296Y-91440037D01*
X122420457Y-91437374D01*
X122416264Y-91435306D01*
X122183564Y-91320551D01*
X122183561Y-91320550D01*
X122179376Y-91318486D01*
X122131745Y-91303239D01*
X121953657Y-91246233D01*
X121923370Y-91236538D01*
X121918763Y-91235788D01*
X121918760Y-91235787D01*
X121705337Y-91201029D01*
X121658063Y-91193330D01*
X121527719Y-91191624D01*
X121393961Y-91189873D01*
X121393958Y-91189873D01*
X121389284Y-91189812D01*
X121122937Y-91226060D01*
X120864874Y-91301278D01*
X120620763Y-91413815D01*
X120616854Y-91416378D01*
X120399881Y-91558631D01*
X120399876Y-91558635D01*
X120395968Y-91561197D01*
X120195426Y-91740188D01*
X120023544Y-91946854D01*
X119884096Y-92176656D01*
X119780148Y-92424545D01*
X119713981Y-92685077D01*
X119687050Y-92952526D01*
X115508500Y-92952526D01*
X115508500Y-86929733D01*
X116487822Y-86929733D01*
X116487975Y-86934121D01*
X116487975Y-86934127D01*
X116496987Y-87192182D01*
X116497625Y-87210458D01*
X116498387Y-87214781D01*
X116498388Y-87214788D01*
X116522164Y-87349624D01*
X116546402Y-87487087D01*
X116633203Y-87754235D01*
X116635131Y-87758188D01*
X116635133Y-87758193D01*
X116672838Y-87835498D01*
X116756340Y-88006702D01*
X116758795Y-88010341D01*
X116758798Y-88010347D01*
X116831890Y-88118710D01*
X116913415Y-88239576D01*
X117101371Y-88448322D01*
X117104733Y-88451143D01*
X117104734Y-88451144D01*
X117153461Y-88492031D01*
X117316550Y-88628879D01*
X117554764Y-88777731D01*
X117811375Y-88891982D01*
X118081390Y-88969407D01*
X118085740Y-88970018D01*
X118085743Y-88970019D01*
X118188690Y-88984487D01*
X118359552Y-89008500D01*
X118570146Y-89008500D01*
X118572332Y-89008347D01*
X118572336Y-89008347D01*
X118775827Y-88994118D01*
X118775832Y-88994117D01*
X118780212Y-88993811D01*
X119054970Y-88935409D01*
X119059099Y-88933906D01*
X119059103Y-88933905D01*
X119314781Y-88840846D01*
X119314785Y-88840844D01*
X119318926Y-88839337D01*
X119566942Y-88707464D01*
X119671896Y-88631211D01*
X119790629Y-88544947D01*
X119790632Y-88544944D01*
X119794192Y-88542358D01*
X119996252Y-88347231D01*
X120169188Y-88125882D01*
X120171384Y-88122078D01*
X120171389Y-88122071D01*
X120307435Y-87886431D01*
X120309636Y-87882619D01*
X120414862Y-87622176D01*
X120418875Y-87606081D01*
X120481753Y-87353893D01*
X120481754Y-87353888D01*
X120482817Y-87349624D01*
X120483597Y-87342209D01*
X120511719Y-87074636D01*
X120511719Y-87074633D01*
X120512178Y-87070267D01*
X120512025Y-87065873D01*
X120502529Y-86793939D01*
X120502528Y-86793933D01*
X120502375Y-86789542D01*
X120501581Y-86785034D01*
X120454360Y-86517236D01*
X120453598Y-86512913D01*
X120366797Y-86245765D01*
X120243660Y-85993298D01*
X120241205Y-85989659D01*
X120241202Y-85989653D01*
X120163272Y-85874118D01*
X120086585Y-85760424D01*
X119898629Y-85551678D01*
X119683450Y-85371121D01*
X119445236Y-85222269D01*
X119188625Y-85108018D01*
X118960913Y-85042723D01*
X118922837Y-85031805D01*
X118922836Y-85031805D01*
X118918610Y-85030593D01*
X118914260Y-85029982D01*
X118914257Y-85029981D01*
X118790241Y-85012552D01*
X118640448Y-84991500D01*
X118429854Y-84991500D01*
X118427668Y-84991653D01*
X118427664Y-84991653D01*
X118224173Y-85005882D01*
X118224168Y-85005883D01*
X118219788Y-85006189D01*
X117945030Y-85064591D01*
X117940901Y-85066094D01*
X117940897Y-85066095D01*
X117685219Y-85159154D01*
X117685215Y-85159156D01*
X117681074Y-85160663D01*
X117433058Y-85292536D01*
X117429499Y-85295122D01*
X117429497Y-85295123D01*
X117276965Y-85405944D01*
X117205808Y-85457642D01*
X117003748Y-85652769D01*
X116919639Y-85760424D01*
X116838844Y-85863838D01*
X116830812Y-85874118D01*
X116828616Y-85877922D01*
X116828611Y-85877929D01*
X116721796Y-86062939D01*
X116690364Y-86117381D01*
X116585138Y-86377824D01*
X116584073Y-86382097D01*
X116584072Y-86382099D01*
X116533678Y-86584220D01*
X116517183Y-86650376D01*
X116516724Y-86654744D01*
X116516723Y-86654749D01*
X116489611Y-86912714D01*
X116487822Y-86929733D01*
X115508500Y-86929733D01*
X115508500Y-85053250D01*
X115510246Y-85032345D01*
X115512770Y-85017344D01*
X115512770Y-85017341D01*
X115513576Y-85012552D01*
X115513729Y-85000000D01*
X115513040Y-84995188D01*
X115512723Y-84990327D01*
X115513008Y-84990308D01*
X115512607Y-84963549D01*
X115519234Y-84904736D01*
X115525513Y-84877229D01*
X115552485Y-84800147D01*
X115564727Y-84774726D01*
X115608178Y-84705574D01*
X115625770Y-84683515D01*
X115683515Y-84625770D01*
X115705574Y-84608178D01*
X115774726Y-84564727D01*
X115800147Y-84552485D01*
X115877228Y-84525513D01*
X115904736Y-84519234D01*
X115960226Y-84512982D01*
X115975868Y-84513077D01*
X115975879Y-84512200D01*
X115984851Y-84512310D01*
X115993724Y-84513691D01*
X116002626Y-84512527D01*
X116002628Y-84512527D01*
X116017951Y-84510523D01*
X116025286Y-84509564D01*
X116041621Y-84508500D01*
X150950633Y-84508500D01*
X150970018Y-84510000D01*
G37*
%TD.AperFunction*%
%TD*%
M02*
